<svg t="1775552598475" class="icon" viewBox="0 0 1024 1024" version="1.1" xmlns="http://www.w3.org/2000/svg" p-id="4790" width="200" height="200"><path d="M704.7 154.9c-17.9 0-32.4-14.4-32.4-32.4 0-17.9 14.5-32.3 32.4-32.3h193.9c17.7 0 32.4 14.4 32.4 32.3V316.4c0 18.1-14.7 32.3-32.4 32.3s-32.3-14.2-32.3-32.3V154.9H704.7z m161.6 549.6c0-17.9 14.7-32.4 32.3-32.4 17.7 0 32.4 14.5 32.4 32.4v193.9c0 17.9-14.7 32.4-32.4 32.4H704.7c-17.9 0-32.4-14.5-32.4-32.4 0-17.7 14.5-32.1 32.4-32.1h161.6V704.5zM316.9 866.3c17.9 0 31.9 14.5 31.9 32.1 0 17.9-14 32.4-31.9 32.4H122.8c-17.9 0-32.1-14.5-32.1-32.4V704.5c0-17.9 14.2-32.4 32.1-32.4s32.1 14.5 32.1 32.4v161.8h162z m-162-549.8c0 18.1-14.2 32.3-32.1 32.3s-32.1-14.2-32.1-32.3v-194c0-17.9 14.2-32.3 32.1-32.3h194.1c17.9 0 31.9 14.4 31.9 32.3s-14 32.4-31.9 32.4h-162v161.6z" fill="#d81e06" p-id="4791"></path></svg>