<?xml version="1.0" encoding="utf-8"?>
<svg version="1.1" xmlns:xlink="http://www.w3.org/1999/xlink" width="27px" height="21px" xmlns="http://www.w3.org/2000/svg">
  <defs>
    <pattern id="BGPattern" patternUnits="userSpaceOnUse" alignment="0 0" imageRepeat="None" />
    <mask fill="white" id="Clip21">
      <path d="M 10.638281249999999 9.547175480769232  C 11.430468750000001 8.83623798076923  12.384375 8.480769230769228  13.5 8.480769230769232  C 14.615625000000003 8.480769230769228  15.56953125 8.83623798076923  16.361718749999998 9.547175480769232  C 17.153906250000002 10.25811298076923  17.55 11.114182692307692  17.55 12.115384615384615  C 17.55 13.116586538461537  17.153906250000002 13.972656249999998  16.361718749999998 14.68359375  C 15.56953125 15.39453125  14.615625000000003 15.75  13.5 15.75  C 12.384375 15.75  11.430468750000001 15.39453125  10.638281249999999 14.68359375  C 9.846093750000001 13.972656249999998  9.45 13.116586538461537  9.45 12.115384615384615  C 9.45 11.114182692307692  9.846093750000001 10.25811298076923  10.638281249999999 9.547175480769232  Z M 20.25 3.230769230769231  L 23.400000000000002 3.230769230769231  C 24.393750000000004 3.230769230769231  25.242187500000004 3.5462740384615383  25.9453125 4.177283653846155  C 26.648437500000004 4.808293269230769  27.000000000000007 5.569711538461537  27 6.461538461538462  L 27 17.76923076923077  C 27.000000000000007 18.661057692307693  26.648437500000004 19.422475961538463  25.9453125 20.053485576923077  C 25.242187500000004 20.684495192307693  24.393750000000004 21  23.400000000000002 21  L 3.6 21  C 2.60625 21  1.7578125000000002 20.684495192307693  1.0546875 20.053485576923077  C 0.3515625 19.422475961538463  0 18.661057692307693  0 17.76923076923077  L 0 6.461538461538462  C 0 5.569711538461537  0.3515625 4.808293269230769  1.0546875 4.177283653846155  C 1.7578125000000002 3.5462740384615383  2.60625 3.230769230769231  3.6 3.230769230769231  L 6.75 3.230769230769231  L 7.4671875 1.5144230769230762  C 7.6453125 1.1021634615384612  7.9710937500000005 0.7466947115384603  8.444531249999999 0.4480168269230762  C 8.917968750000002 0.1493389423076944  9.403125000000001 0  9.899999999999999 0  L 17.099999999999998 0  C 17.596875 0  18.08203125 0.1493389423076944  18.55546875 0.4480168269230762  C 19.028906250000002 0.7466947115384603  19.3546875 1.1021634615384612  19.5328125 1.5144230769230762  L 20.25 3.230769230769231  Z M 9.04921875 16.10967548076923  C 10.282031250000001 17.216045673076923  11.765625000000002 17.76923076923077  13.5 17.76923076923077  C 15.234375000000002 17.76923076923077  16.71796875 17.216045673076923  17.95078125 16.10967548076923  C 19.18359375 15.00330528846154  19.799999999999997 13.671875  19.799999999999997 12.115384615384615  C 19.799999999999997 10.558894230769232  19.18359375 9.227463942307692  17.95078125 8.12109375  C 16.71796875 7.014723557692307  15.234375000000002 6.461538461538462  13.5 6.461538461538462  C 11.765625000000002 6.461538461538462  10.282031250000001 7.014723557692307  9.04921875 8.12109375  C 7.81640625 9.227463942307692  7.2 10.558894230769232  7.2 12.115384615384615  C 7.2 13.671875  7.81640625 15.00330528846154  9.04921875 16.10967548076923  Z " fill-rule="evenodd" />
    </mask>
  </defs>
  <g transform="matrix(1 0 0 1 -247 -649 )">
    <path d="M 10.638281249999999 9.547175480769232  C 11.430468750000001 8.83623798076923  12.384375 8.480769230769228  13.5 8.480769230769232  C 14.615625000000003 8.480769230769228  15.56953125 8.83623798076923  16.361718749999998 9.547175480769232  C 17.153906250000002 10.25811298076923  17.55 11.114182692307692  17.55 12.115384615384615  C 17.55 13.116586538461537  17.153906250000002 13.972656249999998  16.361718749999998 14.68359375  C 15.56953125 15.39453125  14.615625000000003 15.75  13.5 15.75  C 12.384375 15.75  11.430468750000001 15.39453125  10.638281249999999 14.68359375  C 9.846093750000001 13.972656249999998  9.45 13.116586538461537  9.45 12.115384615384615  C 9.45 11.114182692307692  9.846093750000001 10.25811298076923  10.638281249999999 9.547175480769232  Z M 20.25 3.230769230769231  L 23.400000000000002 3.230769230769231  C 24.393750000000004 3.230769230769231  25.242187500000004 3.5462740384615383  25.9453125 4.177283653846155  C 26.648437500000004 4.808293269230769  27.000000000000007 5.569711538461537  27 6.461538461538462  L 27 17.76923076923077  C 27.000000000000007 18.661057692307693  26.648437500000004 19.422475961538463  25.9453125 20.053485576923077  C 25.242187500000004 20.684495192307693  24.393750000000004 21  23.400000000000002 21  L 3.6 21  C 2.60625 21  1.7578125000000002 20.684495192307693  1.0546875 20.053485576923077  C 0.3515625 19.422475961538463  0 18.661057692307693  0 17.76923076923077  L 0 6.461538461538462  C 0 5.569711538461537  0.3515625 4.808293269230769  1.0546875 4.177283653846155  C 1.7578125000000002 3.5462740384615383  2.60625 3.230769230769231  3.6 3.230769230769231  L 6.75 3.230769230769231  L 7.4671875 1.5144230769230762  C 7.6453125 1.1021634615384612  7.9710937500000005 0.7466947115384603  8.444531249999999 0.4480168269230762  C 8.917968750000002 0.1493389423076944  9.403125000000001 0  9.899999999999999 0  L 17.099999999999998 0  C 17.596875 0  18.08203125 0.1493389423076944  18.55546875 0.4480168269230762  C 19.028906250000002 0.7466947115384603  19.3546875 1.1021634615384612  19.5328125 1.5144230769230762  L 20.25 3.230769230769231  Z M 9.04921875 16.10967548076923  C 10.282031250000001 17.216045673076923  11.765625000000002 17.76923076923077  13.5 17.76923076923077  C 15.234375000000002 17.76923076923077  16.71796875 17.216045673076923  17.95078125 16.10967548076923  C 19.18359375 15.00330528846154  19.799999999999997 13.671875  19.799999999999997 12.115384615384615  C 19.799999999999997 10.558894230769232  19.18359375 9.227463942307692  17.95078125 8.12109375  C 16.71796875 7.014723557692307  15.234375000000002 6.461538461538462  13.5 6.461538461538462  C 11.765625000000002 6.461538461538462  10.282031250000001 7.014723557692307  9.04921875 8.12109375  C 7.81640625 9.227463942307692  7.2 10.558894230769232  7.2 12.115384615384615  C 7.2 13.671875  7.81640625 15.00330528846154  9.04921875 16.10967548076923  Z " fill-rule="nonzero" fill="rgba(0, 69, 76, 1)" stroke="none" transform="matrix(1 0 0 1 247 649 )" class="fill" />
    <path d="M 10.638281249999999 9.547175480769232  C 11.430468750000001 8.83623798076923  12.384375 8.480769230769228  13.5 8.480769230769232  C 14.615625000000003 8.480769230769228  15.56953125 8.83623798076923  16.361718749999998 9.547175480769232  C 17.153906250000002 10.25811298076923  17.55 11.114182692307692  17.55 12.115384615384615  C 17.55 13.116586538461537  17.153906250000002 13.972656249999998  16.361718749999998 14.68359375  C 15.56953125 15.39453125  14.615625000000003 15.75  13.5 15.75  C 12.384375 15.75  11.430468750000001 15.39453125  10.638281249999999 14.68359375  C 9.846093750000001 13.972656249999998  9.45 13.116586538461537  9.45 12.115384615384615  C 9.45 11.114182692307692  9.846093750000001 10.25811298076923  10.638281249999999 9.547175480769232  Z " stroke-width="0" stroke-dasharray="0" stroke="rgba(121, 121, 121, 1)" fill="none" transform="matrix(1 0 0 1 247 649 )" class="stroke" mask="url(#Clip21)" />
    <path d="M 20.25 3.230769230769231  L 23.400000000000002 3.230769230769231  C 24.393750000000004 3.230769230769231  25.242187500000004 3.5462740384615383  25.9453125 4.177283653846155  C 26.648437500000004 4.808293269230769  27.000000000000007 5.569711538461537  27 6.461538461538462  L 27 17.76923076923077  C 27.000000000000007 18.661057692307693  26.648437500000004 19.422475961538463  25.9453125 20.053485576923077  C 25.242187500000004 20.684495192307693  24.393750000000004 21  23.400000000000002 21  L 3.6 21  C 2.60625 21  1.7578125000000002 20.684495192307693  1.0546875 20.053485576923077  C 0.3515625 19.422475961538463  0 18.661057692307693  0 17.76923076923077  L 0 6.461538461538462  C 0 5.569711538461537  0.3515625 4.808293269230769  1.0546875 4.177283653846155  C 1.7578125000000002 3.5462740384615383  2.60625 3.230769230769231  3.6 3.230769230769231  L 6.75 3.230769230769231  L 7.4671875 1.5144230769230762  C 7.6453125 1.1021634615384612  7.9710937500000005 0.7466947115384603  8.444531249999999 0.4480168269230762  C 8.917968750000002 0.1493389423076944  9.403125000000001 0  9.899999999999999 0  L 17.099999999999998 0  C 17.596875 0  18.08203125 0.1493389423076944  18.55546875 0.4480168269230762  C 19.028906250000002 0.7466947115384603  19.3546875 1.1021634615384612  19.5328125 1.5144230769230762  L 20.25 3.230769230769231  Z " stroke-width="0" stroke-dasharray="0" stroke="rgba(121, 121, 121, 1)" fill="none" transform="matrix(1 0 0 1 247 649 )" class="stroke" mask="url(#Clip21)" />
    <path d="M 9.04921875 16.10967548076923  C 10.282031250000001 17.216045673076923  11.765625000000002 17.76923076923077  13.5 17.76923076923077  C 15.234375000000002 17.76923076923077  16.71796875 17.216045673076923  17.95078125 16.10967548076923  C 19.18359375 15.00330528846154  19.799999999999997 13.671875  19.799999999999997 12.115384615384615  C 19.799999999999997 10.558894230769232  19.18359375 9.227463942307692  17.95078125 8.12109375  C 16.71796875 7.014723557692307  15.234375000000002 6.461538461538462  13.5 6.461538461538462  C 11.765625000000002 6.461538461538462  10.282031250000001 7.014723557692307  9.04921875 8.12109375  C 7.81640625 9.227463942307692  7.2 10.558894230769232  7.2 12.115384615384615  C 7.2 13.671875  7.81640625 15.00330528846154  9.04921875 16.10967548076923  Z " stroke-width="0" stroke-dasharray="0" stroke="rgba(121, 121, 121, 1)" fill="none" transform="matrix(1 0 0 1 247 649 )" class="stroke" mask="url(#Clip21)" />
  </g>
</svg>