<?xml version="1.0" encoding="utf-8"?>
<svg version="1.1" xmlns:xlink="http://www.w3.org/1999/xlink" width="44px" height="44px" xmlns="http://www.w3.org/2000/svg">
  <defs>
    <pattern id="BGPattern" patternUnits="userSpaceOnUse" alignment="0 0" imageRepeat="None" />
    <mask fill="white" id="Clip22">
      <path d="M 36.12239583333333 25.122395833333336  C 36.48524305555556 24.759548611111107  36.66666666666667 24.329861111111107  36.66666666666667 23.833333333333336  L 36.66666666666667 20.166666666666668  C 36.66666666666667 19.670138888888886  36.48524305555556 19.240451388888886  36.12239583333333 18.877604166666668  C 35.759548611111114 18.514756944444446  35.329861111111114 18.333333333333332  34.83333333333333 18.333333333333332  L 25.666666666666668 18.333333333333332  L 25.666666666666668 9.166666666666668  C 25.666666666666668 8.670138888888886  25.48524305555556 8.240451388888886  25.122395833333332 7.877604166666668  C 24.759548611111114 7.514756944444441  24.329861111111114 7.333333333333332  23.833333333333332 7.333333333333332  L 20.166666666666664 7.333333333333332  C 19.670138888888893 7.333333333333332  19.240451388888893 7.514756944444441  18.877604166666664 7.877604166666668  C 18.514756944444446 8.240451388888886  18.333333333333336 8.670138888888886  18.333333333333336 9.166666666666668  L 18.333333333333336 18.333333333333332  L 9.166666666666668 18.333333333333332  C 8.67013888888889 18.333333333333332  8.24045138888889 18.514756944444446  7.877604166666667 18.877604166666668  C 7.5147569444444455 19.240451388888886  7.333333333333333 19.670138888888886  7.333333333333333 20.166666666666668  L 7.333333333333333 23.833333333333336  C 7.333333333333333 24.329861111111107  7.5147569444444455 24.759548611111107  7.877604166666667 25.122395833333336  C 8.24045138888889 25.485243055555554  8.67013888888889 25.666666666666664  9.166666666666668 25.666666666666664  L 18.333333333333336 25.666666666666664  L 18.333333333333336 34.83333333333333  C 18.333333333333336 35.32986111111111  18.514756944444446 35.75954861111111  18.877604166666664 36.12239583333333  C 19.240451388888893 36.48524305555556  19.670138888888893 36.66666666666667  20.166666666666664 36.66666666666667  L 23.833333333333332 36.66666666666667  C 24.329861111111114 36.66666666666667  24.759548611111114 36.48524305555556  25.122395833333332 36.12239583333333  C 25.48524305555556 35.75954861111111  25.666666666666668 35.32986111111111  25.666666666666668 34.83333333333333  L 25.666666666666668 25.666666666666664  L 34.83333333333333 25.666666666666664  C 35.329861111111114 25.666666666666664  35.759548611111114 25.485243055555554  36.12239583333333 25.122395833333336  Z M 41.57942708333333 2.4205729166666683  C 43.19314236111111 4.034288194444441  44 5.97743055555555  44 8.25  L 44 35.75  C 44 38.02256944444444  43.19314236111111 39.96571180555556  41.57942708333333 41.57942708333333  C 39.96571180555556 43.19314236111111  38.02256944444445 44  35.75 44  L 8.25 44  C 5.977430555555555 44  4.034288194444445 43.19314236111111  2.420572916666667 41.57942708333333  C 0.8068576388888887 39.96571180555556  0 38.02256944444444  0 35.75  L 0 8.25  C 0 5.97743055555555  0.8068576388888887 4.034288194444441  2.420572916666667 2.4205729166666683  C 4.034288194444445 0.8068576388888862  5.977430555555555 0  8.25 0  L 35.75 0  C 38.02256944444445 0  39.96571180555556 0.8068576388888862  41.57942708333333 2.4205729166666683  Z " fill-rule="evenodd" />
    </mask>
  </defs>
  <g transform="matrix(1 0 0 1 -296 -569 )">
    <path d="M 36.12239583333333 25.122395833333336  C 36.48524305555556 24.759548611111107  36.66666666666667 24.329861111111107  36.66666666666667 23.833333333333336  L 36.66666666666667 20.166666666666668  C 36.66666666666667 19.670138888888886  36.48524305555556 19.240451388888886  36.12239583333333 18.877604166666668  C 35.759548611111114 18.514756944444446  35.329861111111114 18.333333333333332  34.83333333333333 18.333333333333332  L 25.666666666666668 18.333333333333332  L 25.666666666666668 9.166666666666668  C 25.666666666666668 8.670138888888886  25.48524305555556 8.240451388888886  25.122395833333332 7.877604166666668  C 24.759548611111114 7.514756944444441  24.329861111111114 7.333333333333332  23.833333333333332 7.333333333333332  L 20.166666666666664 7.333333333333332  C 19.670138888888893 7.333333333333332  19.240451388888893 7.514756944444441  18.877604166666664 7.877604166666668  C 18.514756944444446 8.240451388888886  18.333333333333336 8.670138888888886  18.333333333333336 9.166666666666668  L 18.333333333333336 18.333333333333332  L 9.166666666666668 18.333333333333332  C 8.67013888888889 18.333333333333332  8.24045138888889 18.514756944444446  7.877604166666667 18.877604166666668  C 7.5147569444444455 19.240451388888886  7.333333333333333 19.670138888888886  7.333333333333333 20.166666666666668  L 7.333333333333333 23.833333333333336  C 7.333333333333333 24.329861111111107  7.5147569444444455 24.759548611111107  7.877604166666667 25.122395833333336  C 8.24045138888889 25.485243055555554  8.67013888888889 25.666666666666664  9.166666666666668 25.666666666666664  L 18.333333333333336 25.666666666666664  L 18.333333333333336 34.83333333333333  C 18.333333333333336 35.32986111111111  18.514756944444446 35.75954861111111  18.877604166666664 36.12239583333333  C 19.240451388888893 36.48524305555556  19.670138888888893 36.66666666666667  20.166666666666664 36.66666666666667  L 23.833333333333332 36.66666666666667  C 24.329861111111114 36.66666666666667  24.759548611111114 36.48524305555556  25.122395833333332 36.12239583333333  C 25.48524305555556 35.75954861111111  25.666666666666668 35.32986111111111  25.666666666666668 34.83333333333333  L 25.666666666666668 25.666666666666664  L 34.83333333333333 25.666666666666664  C 35.329861111111114 25.666666666666664  35.759548611111114 25.485243055555554  36.12239583333333 25.122395833333336  Z M 41.57942708333333 2.4205729166666683  C 43.19314236111111 4.034288194444441  44 5.97743055555555  44 8.25  L 44 35.75  C 44 38.02256944444444  43.19314236111111 39.96571180555556  41.57942708333333 41.57942708333333  C 39.96571180555556 43.19314236111111  38.02256944444445 44  35.75 44  L 8.25 44  C 5.977430555555555 44  4.034288194444445 43.19314236111111  2.420572916666667 41.57942708333333  C 0.8068576388888887 39.96571180555556  0 38.02256944444444  0 35.75  L 0 8.25  C 0 5.97743055555555  0.8068576388888887 4.034288194444441  2.420572916666667 2.4205729166666683  C 4.034288194444445 0.8068576388888862  5.977430555555555 0  8.25 0  L 35.75 0  C 38.02256944444445 0  39.96571180555556 0.8068576388888862  41.57942708333333 2.4205729166666683  Z " fill-rule="nonzero" fill="rgba(255, 255, 255, 1)" stroke="none" transform="matrix(1 0 0 1 296 569 )" class="fill" />
    <path d="M 36.12239583333333 25.122395833333336  C 36.48524305555556 24.759548611111107  36.66666666666667 24.329861111111107  36.66666666666667 23.833333333333336  L 36.66666666666667 20.166666666666668  C 36.66666666666667 19.670138888888886  36.48524305555556 19.240451388888886  36.12239583333333 18.877604166666668  C 35.759548611111114 18.514756944444446  35.329861111111114 18.333333333333332  34.83333333333333 18.333333333333332  L 25.666666666666668 18.333333333333332  L 25.666666666666668 9.166666666666668  C 25.666666666666668 8.670138888888886  25.48524305555556 8.240451388888886  25.122395833333332 7.877604166666668  C 24.759548611111114 7.514756944444441  24.329861111111114 7.333333333333332  23.833333333333332 7.333333333333332  L 20.166666666666664 7.333333333333332  C 19.670138888888893 7.333333333333332  19.240451388888893 7.514756944444441  18.877604166666664 7.877604166666668  C 18.514756944444446 8.240451388888886  18.333333333333336 8.670138888888886  18.333333333333336 9.166666666666668  L 18.333333333333336 18.333333333333332  L 9.166666666666668 18.333333333333332  C 8.67013888888889 18.333333333333332  8.24045138888889 18.514756944444446  7.877604166666667 18.877604166666668  C 7.5147569444444455 19.240451388888886  7.333333333333333 19.670138888888886  7.333333333333333 20.166666666666668  L 7.333333333333333 23.833333333333336  C 7.333333333333333 24.329861111111107  7.5147569444444455 24.759548611111107  7.877604166666667 25.122395833333336  C 8.24045138888889 25.485243055555554  8.67013888888889 25.666666666666664  9.166666666666668 25.666666666666664  L 18.333333333333336 25.666666666666664  L 18.333333333333336 34.83333333333333  C 18.333333333333336 35.32986111111111  18.514756944444446 35.75954861111111  18.877604166666664 36.12239583333333  C 19.240451388888893 36.48524305555556  19.670138888888893 36.66666666666667  20.166666666666664 36.66666666666667  L 23.833333333333332 36.66666666666667  C 24.329861111111114 36.66666666666667  24.759548611111114 36.48524305555556  25.122395833333332 36.12239583333333  C 25.48524305555556 35.75954861111111  25.666666666666668 35.32986111111111  25.666666666666668 34.83333333333333  L 25.666666666666668 25.666666666666664  L 34.83333333333333 25.666666666666664  C 35.329861111111114 25.666666666666664  35.759548611111114 25.485243055555554  36.12239583333333 25.122395833333336  Z " stroke-width="0" stroke-dasharray="0" stroke="rgba(121, 121, 121, 1)" fill="none" transform="matrix(1 0 0 1 296 569 )" class="stroke" mask="url(#Clip22)" />
    <path d="M 41.57942708333333 2.4205729166666683  C 43.19314236111111 4.034288194444441  44 5.97743055555555  44 8.25  L 44 35.75  C 44 38.02256944444444  43.19314236111111 39.96571180555556  41.57942708333333 41.57942708333333  C 39.96571180555556 43.19314236111111  38.02256944444445 44  35.75 44  L 8.25 44  C 5.977430555555555 44  4.034288194444445 43.19314236111111  2.420572916666667 41.57942708333333  C 0.8068576388888887 39.96571180555556  0 38.02256944444444  0 35.75  L 0 8.25  C 0 5.97743055555555  0.8068576388888887 4.034288194444441  2.420572916666667 2.4205729166666683  C 4.034288194444445 0.8068576388888862  5.977430555555555 0  8.25 0  L 35.75 0  C 38.02256944444445 0  39.96571180555556 0.8068576388888862  41.57942708333333 2.4205729166666683  Z " stroke-width="0" stroke-dasharray="0" stroke="rgba(121, 121, 121, 1)" fill="none" transform="matrix(1 0 0 1 296 569 )" class="stroke" mask="url(#Clip22)" />
  </g>
</svg>