<?xml version="1.0" encoding="utf-8"?>
<svg version="1.1" xmlns:xlink="http://www.w3.org/1999/xlink" width="7px" height="6px" xmlns="http://www.w3.org/2000/svg">
  <defs>
    <pattern id="BGPattern" patternUnits="userSpaceOnUse" alignment="0 0" imageRepeat="None" />
    <mask fill="white" id="Clip24">
      <path d="M 6.8701171875 4.864583333333333  C 6.956705729166667 4.996527777777777  7 5.152777777777778  7 5.333333333333333  C 7 5.513888888888888  6.956705729166667 5.670138888888889  6.8701171875 5.802083333333333  C 6.783528645833334 5.934027777777777  6.680989583333334 6  6.5625 6  L 0.4375 6  C 0.3190104166666667 6  0.21647135416666669 5.934027777777777  0.1298828125 5.802083333333333  C 0.04329427083333333 5.670138888888889  0 5.513888888888888  0 5.333333333333333  C 0 5.152777777777778  0.04329427083333333 4.996527777777777  0.1298828125 4.864583333333333  L 3.1923828125 0.19791666666666696  C 3.278971354166667 0.06597222222222143  3.381510416666667 0  3.5 0  C 3.6184895833333335 0  3.7210286458333335 0.06597222222222143  3.8076171875 0.19791666666666696  L 6.8701171875 4.864583333333333  Z " fill-rule="evenodd" />
    </mask>
  </defs>
  <g transform="matrix(1 0 0 1 -496 -598 )">
    <path d="M 6.8701171875 4.864583333333333  C 6.956705729166667 4.996527777777777  7 5.152777777777778  7 5.333333333333333  C 7 5.513888888888888  6.956705729166667 5.670138888888889  6.8701171875 5.802083333333333  C 6.783528645833334 5.934027777777777  6.680989583333334 6  6.5625 6  L 0.4375 6  C 0.3190104166666667 6  0.21647135416666669 5.934027777777777  0.1298828125 5.802083333333333  C 0.04329427083333333 5.670138888888889  0 5.513888888888888  0 5.333333333333333  C 0 5.152777777777778  0.04329427083333333 4.996527777777777  0.1298828125 4.864583333333333  L 3.1923828125 0.19791666666666696  C 3.278971354166667 0.06597222222222143  3.381510416666667 0  3.5 0  C 3.6184895833333335 0  3.7210286458333335 0.06597222222222143  3.8076171875 0.19791666666666696  L 6.8701171875 4.864583333333333  Z " fill-rule="nonzero" fill="rgba(174, 174, 174, 1)" stroke="none" transform="matrix(1 0 0 1 496 598 )" class="fill" />
    <path d="M 6.8701171875 4.864583333333333  C 6.956705729166667 4.996527777777777  7 5.152777777777778  7 5.333333333333333  C 7 5.513888888888888  6.956705729166667 5.670138888888889  6.8701171875 5.802083333333333  C 6.783528645833334 5.934027777777777  6.680989583333334 6  6.5625 6  L 0.4375 6  C 0.3190104166666667 6  0.21647135416666669 5.934027777777777  0.1298828125 5.802083333333333  C 0.04329427083333333 5.670138888888889  0 5.513888888888888  0 5.333333333333333  C 0 5.152777777777778  0.04329427083333333 4.996527777777777  0.1298828125 4.864583333333333  L 3.1923828125 0.19791666666666696  C 3.278971354166667 0.06597222222222143  3.381510416666667 0  3.5 0  C 3.6184895833333335 0  3.7210286458333335 0.06597222222222143  3.8076171875 0.19791666666666696  L 6.8701171875 4.864583333333333  Z " stroke-width="0" stroke-dasharray="0" stroke="rgba(121, 121, 121, 1)" fill="none" transform="matrix(1 0 0 1 496 598 )" class="stroke" mask="url(#Clip24)" />
  </g>
</svg>