<?xml version="1.0" encoding="utf-8"?>
<svg version="1.1" xmlns:xlink="http://www.w3.org/1999/xlink" width="13px" height="9px" xmlns="http://www.w3.org/2000/svg">
  <defs>
    <pattern id="BGPattern" patternUnits="userSpaceOnUse" alignment="0 0" imageRepeat="None" />
    <mask fill="white" id="Clip19">
      <path d="M 12.869739478957916 4.136645962732919  C 12.956579826319306 4.198757763975155  13 4.270186335403726  13 4.350931677018633  C 13 4.431677018633541  12.956579826319306 4.503105590062112  12.869739478957916 4.565217391304348  L 6.799599198396793 8.906832298136646  C 6.712758851035405 8.968944099378882  6.612892451569807 9  6.5 9  C 6.387107548430195 9  6.287241148964597 8.968944099378882  6.200400801603206 8.906832298136646  L 0.13026052104208416 4.565217391304348  C 0.04342017368069485 4.503105590062112  0 4.431677018633541  0 4.350931677018633  C 0 4.270186335403726  0.04342017368069485 4.198757763975155  0.13026052104208416 4.136645962732919  L 0.781563126252505 3.6708074534161486  C 0.8684034736138947 3.608695652173912  0.9682698730794924 3.5776397515527947  1.0811623246492985 3.5776397515527947  C 1.1940547762191052 3.5776397515527947  1.2939211756847029 3.608695652173912  1.3807615230460921 3.6708074534161486  L 6.5 7.332298136645963  L 11.619238476953909 3.6708074534161486  C 11.706078824315298 3.608695652173912  11.805945223780896 3.5776397515527947  11.918837675350701 3.5776397515527947  C 12.03173012692051 3.5776397515527947  12.131596526386106 3.608695652173912  12.218436873747496 3.6708074534161486  L 12.869739478957916 4.136645962732919  Z M 12.869739478957916 0.5590062111801243  C 12.956579826319306 0.6211180124223589  13 0.692546583850931  13 0.7732919254658388  C 13 0.8540372670807436  12.956579826319306 0.9254658385093157  12.869739478957916 0.9875776397515523  L 6.799599198396793 5.32919254658385  C 6.712758851035405 5.391304347826087  6.612892451569807 5.422360248447205  6.5 5.422360248447205  C 6.387107548430195 5.422360248447205  6.287241148964597 5.391304347826087  6.200400801603206 5.32919254658385  L 0.13026052104208416 0.9875776397515523  C 0.04342017368069485 0.9254658385093157  0 0.8540372670807436  0 0.7732919254658388  C 0 0.692546583850931  0.04342017368069485 0.6211180124223589  0.13026052104208416 0.5590062111801243  L 0.781563126252505 0.09316770186335388  C 0.8684034736138947 0.031055900621117294  0.9682698730794924 0  1.0811623246492985 0  C 1.1940547762191052 0  1.2939211756847029 0.031055900621117294  1.3807615230460921 0.09316770186335388  L 6.5 3.754658385093168  L 11.619238476953909 0.09316770186335388  C 11.706078824315298 0.031055900621117294  11.805945223780896 0  11.918837675350701 0  C 12.03173012692051 0  12.131596526386106 0.031055900621117294  12.218436873747496 0.09316770186335388  L 12.869739478957916 0.5590062111801243  Z " fill-rule="evenodd" />
    </mask>
  </defs>
  <g transform="matrix(1 0 0 1 -570 -85 )">
    <path d="M 12.869739478957916 4.136645962732919  C 12.956579826319306 4.198757763975155  13 4.270186335403726  13 4.350931677018633  C 13 4.431677018633541  12.956579826319306 4.503105590062112  12.869739478957916 4.565217391304348  L 6.799599198396793 8.906832298136646  C 6.712758851035405 8.968944099378882  6.612892451569807 9  6.5 9  C 6.387107548430195 9  6.287241148964597 8.968944099378882  6.200400801603206 8.906832298136646  L 0.13026052104208416 4.565217391304348  C 0.04342017368069485 4.503105590062112  0 4.431677018633541  0 4.350931677018633  C 0 4.270186335403726  0.04342017368069485 4.198757763975155  0.13026052104208416 4.136645962732919  L 0.781563126252505 3.6708074534161486  C 0.8684034736138947 3.608695652173912  0.9682698730794924 3.5776397515527947  1.0811623246492985 3.5776397515527947  C 1.1940547762191052 3.5776397515527947  1.2939211756847029 3.608695652173912  1.3807615230460921 3.6708074534161486  L 6.5 7.332298136645963  L 11.619238476953909 3.6708074534161486  C 11.706078824315298 3.608695652173912  11.805945223780896 3.5776397515527947  11.918837675350701 3.5776397515527947  C 12.03173012692051 3.5776397515527947  12.131596526386106 3.608695652173912  12.218436873747496 3.6708074534161486  L 12.869739478957916 4.136645962732919  Z M 12.869739478957916 0.5590062111801243  C 12.956579826319306 0.6211180124223589  13 0.692546583850931  13 0.7732919254658388  C 13 0.8540372670807436  12.956579826319306 0.9254658385093157  12.869739478957916 0.9875776397515523  L 6.799599198396793 5.32919254658385  C 6.712758851035405 5.391304347826087  6.612892451569807 5.422360248447205  6.5 5.422360248447205  C 6.387107548430195 5.422360248447205  6.287241148964597 5.391304347826087  6.200400801603206 5.32919254658385  L 0.13026052104208416 0.9875776397515523  C 0.04342017368069485 0.9254658385093157  0 0.8540372670807436  0 0.7732919254658388  C 0 0.692546583850931  0.04342017368069485 0.6211180124223589  0.13026052104208416 0.5590062111801243  L 0.781563126252505 0.09316770186335388  C 0.8684034736138947 0.031055900621117294  0.9682698730794924 0  1.0811623246492985 0  C 1.1940547762191052 0  1.2939211756847029 0.031055900621117294  1.3807615230460921 0.09316770186335388  L 6.5 3.754658385093168  L 11.619238476953909 0.09316770186335388  C 11.706078824315298 0.031055900621117294  11.805945223780896 0  11.918837675350701 0  C 12.03173012692051 0  12.131596526386106 0.031055900621117294  12.218436873747496 0.09316770186335388  L 12.869739478957916 0.5590062111801243  Z " fill-rule="nonzero" fill="rgba(204, 204, 204, 1)" stroke="none" transform="matrix(1 0 0 1 570 85 )" class="fill" />
    <path d="M 12.869739478957916 4.136645962732919  C 12.956579826319306 4.198757763975155  13 4.270186335403726  13 4.350931677018633  C 13 4.431677018633541  12.956579826319306 4.503105590062112  12.869739478957916 4.565217391304348  L 6.799599198396793 8.906832298136646  C 6.712758851035405 8.968944099378882  6.612892451569807 9  6.5 9  C 6.387107548430195 9  6.287241148964597 8.968944099378882  6.200400801603206 8.906832298136646  L 0.13026052104208416 4.565217391304348  C 0.04342017368069485 4.503105590062112  0 4.431677018633541  0 4.350931677018633  C 0 4.270186335403726  0.04342017368069485 4.198757763975155  0.13026052104208416 4.136645962732919  L 0.781563126252505 3.6708074534161486  C 0.8684034736138947 3.608695652173912  0.9682698730794924 3.5776397515527947  1.0811623246492985 3.5776397515527947  C 1.1940547762191052 3.5776397515527947  1.2939211756847029 3.608695652173912  1.3807615230460921 3.6708074534161486  L 6.5 7.332298136645963  L 11.619238476953909 3.6708074534161486  C 11.706078824315298 3.608695652173912  11.805945223780896 3.5776397515527947  11.918837675350701 3.5776397515527947  C 12.03173012692051 3.5776397515527947  12.131596526386106 3.608695652173912  12.218436873747496 3.6708074534161486  L 12.869739478957916 4.136645962732919  Z " stroke-width="0" stroke-dasharray="0" stroke="rgba(121, 121, 121, 1)" fill="none" transform="matrix(1 0 0 1 570 85 )" class="stroke" mask="url(#Clip19)" />
    <path d="M 12.869739478957916 0.5590062111801243  C 12.956579826319306 0.6211180124223589  13 0.692546583850931  13 0.7732919254658388  C 13 0.8540372670807436  12.956579826319306 0.9254658385093157  12.869739478957916 0.9875776397515523  L 6.799599198396793 5.32919254658385  C 6.712758851035405 5.391304347826087  6.612892451569807 5.422360248447205  6.5 5.422360248447205  C 6.387107548430195 5.422360248447205  6.287241148964597 5.391304347826087  6.200400801603206 5.32919254658385  L 0.13026052104208416 0.9875776397515523  C 0.04342017368069485 0.9254658385093157  0 0.8540372670807436  0 0.7732919254658388  C 0 0.692546583850931  0.04342017368069485 0.6211180124223589  0.13026052104208416 0.5590062111801243  L 0.781563126252505 0.09316770186335388  C 0.8684034736138947 0.031055900621117294  0.9682698730794924 0  1.0811623246492985 0  C 1.1940547762191052 0  1.2939211756847029 0.031055900621117294  1.3807615230460921 0.09316770186335388  L 6.5 3.754658385093168  L 11.619238476953909 0.09316770186335388  C 11.706078824315298 0.031055900621117294  11.805945223780896 0  11.918837675350701 0  C 12.03173012692051 0  12.131596526386106 0.031055900621117294  12.218436873747496 0.09316770186335388  L 12.869739478957916 0.5590062111801243  Z " stroke-width="0" stroke-dasharray="0" stroke="rgba(121, 121, 121, 1)" fill="none" transform="matrix(1 0 0 1 570 85 )" class="stroke" mask="url(#Clip19)" />
  </g>
</svg>