<?xml version="1.0" encoding="utf-8"?>
<svg version="1.1" xmlns:xlink="http://www.w3.org/1999/xlink" width="26px" height="35px" xmlns="http://www.w3.org/2000/svg">
  <defs>
    <pattern id="BGPattern" patternUnits="userSpaceOnUse" alignment="0 0" imageRepeat="None" />
    <mask fill="white" id="Clip5">
      <path d="M 16 8.75  C 16 15  11.2 18.75  8 25  C 4.8 18.75  0 15  0 8.75  C 0 5.499999999999999  1.6 0  8 0  C 14.4 0  16 5.499999999999999  16 8.75  Z " fill-rule="evenodd" />
    </mask>
  </defs>
  <g transform="matrix(1 0 0 1 -1049 -148 )">
    <path d="M 16 8.75  C 16 15  11.2 18.75  8 25  C 4.8 18.75  0 15  0 8.75  C 0 5.499999999999999  1.6 0  8 0  C 14.4 0  16 5.499999999999999  16 8.75  Z " fill-rule="nonzero" fill="rgba(201, 201, 201, 1)" stroke="none" transform="matrix(1 0 0 1 1053 152 )" class="fill" />
    <path d="M 16 8.75  C 16 15  11.2 18.75  8 25  C 4.8 18.75  0 15  0 8.75  C 0 5.499999999999999  1.6 0  8 0  C 14.4 0  16 5.499999999999999  16 8.75  Z " stroke-width="2" stroke-dasharray="0" stroke="rgba(255, 255, 255, 1)" fill="none" transform="matrix(1 0 0 1 1053 152 )" class="stroke" mask="url(#Clip5)" />
  </g>
  <style>svg { filter: drop-shadow(1px 1px 2.5px rgba(0, 0, 0, 0.6980392156862745)); }</style>
</svg>