<?xml version="1.0" encoding="utf-8"?>
<svg version="1.1" xmlns:xlink="http://www.w3.org/1999/xlink" width="23px" height="31px" xmlns="http://www.w3.org/2000/svg">
  <defs>
    <pattern id="BGPattern" patternUnits="userSpaceOnUse" alignment="0 0" imageRepeat="None" />
    <mask fill="white" id="Clip6">
      <path d="M 2.9484536082474224 0.6613226452905806  C 2.982817869415808 0.7348029392117555  3 0.8193052772211075  3 0.9148296593186376  C 3 1.0103540414161651  2.982817869415808 1.0948563794255173  2.9484536082474224 1.1683366733466933  L 0.9226804123711341 5.5  L 2.9484536082474224 9.831663326653306  C 2.982817869415808 9.905143620574481  3 9.989645958583834  3 10.085170340681362  C 3 10.180694722778892  2.982817869415808 10.265197060788243  2.9484536082474224 10.33867735470942  L 2.6907216494845363 10.889779559118237  C 2.6563573883161515 10.963259853039412  2.616838487972509 11  2.572164948453608 11  C 2.5274914089347083 11  2.487972508591066 10.963259853039412  2.4536082474226806 10.889779559118237  L 0.051546391752577324 5.753507014028056  C 0.01718213058419245 5.68002672010688  0 5.595524382097528  0 5.5  C 0 5.404475617902471  0.01718213058419245 5.319973279893119  0.051546391752577324 5.246492985971944  L 2.4536082474226806 0.11022044088176364  C 2.487972508591066 0.03674014696058747  2.5274914089347083 0  2.572164948453608 0  C 2.616838487972509 0  2.6563573883161515 0.03674014696058747  2.6907216494845363 0.11022044088176364  L 2.9484536082474224 0.6613226452905806  Z " fill-rule="evenodd" />
    </mask>
  </defs>
  <g transform="matrix(1 0 0 1 -1430 -138 )">
    <path d="M 2.9484536082474224 0.6613226452905806  C 2.982817869415808 0.7348029392117555  3 0.8193052772211075  3 0.9148296593186376  C 3 1.0103540414161651  2.982817869415808 1.0948563794255173  2.9484536082474224 1.1683366733466933  L 0.9226804123711341 5.5  L 2.9484536082474224 9.831663326653306  C 2.982817869415808 9.905143620574481  3 9.989645958583834  3 10.085170340681362  C 3 10.180694722778892  2.982817869415808 10.265197060788243  2.9484536082474224 10.33867735470942  L 2.6907216494845363 10.889779559118237  C 2.6563573883161515 10.963259853039412  2.616838487972509 11  2.572164948453608 11  C 2.5274914089347083 11  2.487972508591066 10.963259853039412  2.4536082474226806 10.889779559118237  L 0.051546391752577324 5.753507014028056  C 0.01718213058419245 5.68002672010688  0 5.595524382097528  0 5.5  C 0 5.404475617902471  0.01718213058419245 5.319973279893119  0.051546391752577324 5.246492985971944  L 2.4536082474226806 0.11022044088176364  C 2.487972508591066 0.03674014696058747  2.5274914089347083 0  2.572164948453608 0  C 2.616838487972509 0  2.6563573883161515 0.03674014696058747  2.6907216494845363 0.11022044088176364  L 2.9484536082474224 0.6613226452905806  Z " fill-rule="nonzero" fill="rgba(215, 215, 215, 1)" stroke="none" transform="matrix(1 0 0 1 1440 148 )" class="fill" />
    <path d="M 2.9484536082474224 0.6613226452905806  C 2.982817869415808 0.7348029392117555  3 0.8193052772211075  3 0.9148296593186376  C 3 1.0103540414161651  2.982817869415808 1.0948563794255173  2.9484536082474224 1.1683366733466933  L 0.9226804123711341 5.5  L 2.9484536082474224 9.831663326653306  C 2.982817869415808 9.905143620574481  3 9.989645958583834  3 10.085170340681362  C 3 10.180694722778892  2.982817869415808 10.265197060788243  2.9484536082474224 10.33867735470942  L 2.6907216494845363 10.889779559118237  C 2.6563573883161515 10.963259853039412  2.616838487972509 11  2.572164948453608 11  C 2.5274914089347083 11  2.487972508591066 10.963259853039412  2.4536082474226806 10.889779559118237  L 0.051546391752577324 5.753507014028056  C 0.01718213058419245 5.68002672010688  0 5.595524382097528  0 5.5  C 0 5.404475617902471  0.01718213058419245 5.319973279893119  0.051546391752577324 5.246492985971944  L 2.4536082474226806 0.11022044088176364  C 2.487972508591066 0.03674014696058747  2.5274914089347083 0  2.572164948453608 0  C 2.616838487972509 0  2.6563573883161515 0.03674014696058747  2.6907216494845363 0.11022044088176364  L 2.9484536082474224 0.6613226452905806  Z " stroke-width="0" stroke-dasharray="0" stroke="rgba(121, 121, 121, 1)" fill="none" transform="matrix(1 0 0 1 1440 148 )" class="stroke" mask="url(#Clip6)" />
  </g>
  <style>svg { filter: drop-shadow(0px 0px 5px rgba(67, 162, 145, 1)); }</style>
</svg>