<?xml version="1.0" encoding="utf-8"?>
<svg version="1.1" xmlns:xlink="http://www.w3.org/1999/xlink" width="8px" height="11px" xmlns="http://www.w3.org/2000/svg">
  <defs>
    <pattern id="BGPattern" patternUnits="userSpaceOnUse" alignment="0 0" imageRepeat="None" />
    <mask fill="white" id="Clip7">
      <path d="M 4.737060041407868 9.831663326653306  C 4.792270531400967 9.905143620574481  4.819875776397516 9.989645958583834  4.819875776397516 10.085170340681362  C 4.819875776397516 10.180694722778892  4.792270531400967 10.265197060788243  4.737060041407868 10.33867735470942  L 4.3229813664596275 10.889779559118237  C 4.267770876466529 10.963259853039412  4.204278812974466 11  4.132505175983437 11  C 4.060731538992409 11  3.9972394755003458 10.963259853039412  3.9420289855072466 10.889779559118237  L 0.08281573498964803 5.753507014028056  C 0.027605244996549365 5.68002672010688  0 5.595524382097528  0 5.5  C 0 5.404475617902471  0.027605244996549365 5.319973279893119  0.08281573498964803 5.246492985971944  L 3.9420289855072466 0.11022044088176364  C 3.9972394755003458 0.03674014696058747  4.060731538992409 0  4.132505175983437 0  C 4.204278812974466 0  4.267770876466529 0.03674014696058747  4.3229813664596275 0.11022044088176364  L 4.737060041407868 0.6613226452905806  C 4.792270531400967 0.7348029392117555  4.819875776397516 0.8193052772211075  4.819875776397516 0.9148296593186376  C 4.819875776397516 1.0103540414161651  4.792270531400967 1.0948563794255173  4.737060041407868 1.1683366733466933  L 1.4824016563146998 5.5  L 4.737060041407868 9.831663326653306  Z M 7.917184265010352 9.831663326653306  C 7.972394755003451 9.905143620574481  8.000000000000002 9.989645958583834  8 10.085170340681362  C 8.000000000000002 10.180694722778892  7.972394755003451 10.265197060788243  7.917184265010352 10.33867735470942  L 7.503105590062112 10.889779559118237  C 7.4478951000690135 10.963259853039412  7.38440303657695 11  7.312629399585921 11  C 7.240855762594895 11  7.1773636991028305 10.963259853039412  7.122153209109731 10.889779559118237  L 3.2629399585921326 5.753507014028056  C 3.2077294685990343 5.68002672010688  3.180124223602485 5.595524382097528  3.1801242236024843 5.5  C 3.180124223602485 5.404475617902471  3.2077294685990343 5.319973279893119  3.2629399585921326 5.246492985971944  L 7.122153209109731 0.11022044088176364  C 7.1773636991028305 0.03674014696058747  7.240855762594895 0  7.312629399585921 0  C 7.38440303657695 0  7.4478951000690135 0.03674014696058747  7.503105590062112 0.11022044088176364  L 7.917184265010352 0.6613226452905806  C 7.972394755003451 0.7348029392117555  8.000000000000002 0.8193052772211075  8 0.9148296593186376  C 8.000000000000002 1.0103540414161651  7.972394755003451 1.0948563794255173  7.917184265010352 1.1683366733466933  L 4.662525879917184 5.5  L 7.917184265010352 9.831663326653306  Z " fill-rule="evenodd" />
    </mask>
  </defs>
  <g transform="matrix(1 0 0 1 -1101 -183 )">
    <path d="M 4.737060041407868 9.831663326653306  C 4.792270531400967 9.905143620574481  4.819875776397516 9.989645958583834  4.819875776397516 10.085170340681362  C 4.819875776397516 10.180694722778892  4.792270531400967 10.265197060788243  4.737060041407868 10.33867735470942  L 4.3229813664596275 10.889779559118237  C 4.267770876466529 10.963259853039412  4.204278812974466 11  4.132505175983437 11  C 4.060731538992409 11  3.9972394755003458 10.963259853039412  3.9420289855072466 10.889779559118237  L 0.08281573498964803 5.753507014028056  C 0.027605244996549365 5.68002672010688  0 5.595524382097528  0 5.5  C 0 5.404475617902471  0.027605244996549365 5.319973279893119  0.08281573498964803 5.246492985971944  L 3.9420289855072466 0.11022044088176364  C 3.9972394755003458 0.03674014696058747  4.060731538992409 0  4.132505175983437 0  C 4.204278812974466 0  4.267770876466529 0.03674014696058747  4.3229813664596275 0.11022044088176364  L 4.737060041407868 0.6613226452905806  C 4.792270531400967 0.7348029392117555  4.819875776397516 0.8193052772211075  4.819875776397516 0.9148296593186376  C 4.819875776397516 1.0103540414161651  4.792270531400967 1.0948563794255173  4.737060041407868 1.1683366733466933  L 1.4824016563146998 5.5  L 4.737060041407868 9.831663326653306  Z M 7.917184265010352 9.831663326653306  C 7.972394755003451 9.905143620574481  8.000000000000002 9.989645958583834  8 10.085170340681362  C 8.000000000000002 10.180694722778892  7.972394755003451 10.265197060788243  7.917184265010352 10.33867735470942  L 7.503105590062112 10.889779559118237  C 7.4478951000690135 10.963259853039412  7.38440303657695 11  7.312629399585921 11  C 7.240855762594895 11  7.1773636991028305 10.963259853039412  7.122153209109731 10.889779559118237  L 3.2629399585921326 5.753507014028056  C 3.2077294685990343 5.68002672010688  3.180124223602485 5.595524382097528  3.1801242236024843 5.5  C 3.180124223602485 5.404475617902471  3.2077294685990343 5.319973279893119  3.2629399585921326 5.246492985971944  L 7.122153209109731 0.11022044088176364  C 7.1773636991028305 0.03674014696058747  7.240855762594895 0  7.312629399585921 0  C 7.38440303657695 0  7.4478951000690135 0.03674014696058747  7.503105590062112 0.11022044088176364  L 7.917184265010352 0.6613226452905806  C 7.972394755003451 0.7348029392117555  8.000000000000002 0.8193052772211075  8 0.9148296593186376  C 8.000000000000002 1.0103540414161651  7.972394755003451 1.0948563794255173  7.917184265010352 1.1683366733466933  L 4.662525879917184 5.5  L 7.917184265010352 9.831663326653306  Z " fill-rule="nonzero" fill="rgba(215, 215, 215, 1)" stroke="none" transform="matrix(1 0 0 1 1101 183 )" class="fill" />
    <path d="M 4.737060041407868 9.831663326653306  C 4.792270531400967 9.905143620574481  4.819875776397516 9.989645958583834  4.819875776397516 10.085170340681362  C 4.819875776397516 10.180694722778892  4.792270531400967 10.265197060788243  4.737060041407868 10.33867735470942  L 4.3229813664596275 10.889779559118237  C 4.267770876466529 10.963259853039412  4.204278812974466 11  4.132505175983437 11  C 4.060731538992409 11  3.9972394755003458 10.963259853039412  3.9420289855072466 10.889779559118237  L 0.08281573498964803 5.753507014028056  C 0.027605244996549365 5.68002672010688  0 5.595524382097528  0 5.5  C 0 5.404475617902471  0.027605244996549365 5.319973279893119  0.08281573498964803 5.246492985971944  L 3.9420289855072466 0.11022044088176364  C 3.9972394755003458 0.03674014696058747  4.060731538992409 0  4.132505175983437 0  C 4.204278812974466 0  4.267770876466529 0.03674014696058747  4.3229813664596275 0.11022044088176364  L 4.737060041407868 0.6613226452905806  C 4.792270531400967 0.7348029392117555  4.819875776397516 0.8193052772211075  4.819875776397516 0.9148296593186376  C 4.819875776397516 1.0103540414161651  4.792270531400967 1.0948563794255173  4.737060041407868 1.1683366733466933  L 1.4824016563146998 5.5  L 4.737060041407868 9.831663326653306  Z " stroke-width="0" stroke-dasharray="0" stroke="rgba(255, 255, 255, 1)" fill="none" transform="matrix(1 0 0 1 1101 183 )" class="stroke" mask="url(#Clip7)" />
    <path d="M 7.917184265010352 9.831663326653306  C 7.972394755003451 9.905143620574481  8.000000000000002 9.989645958583834  8 10.085170340681362  C 8.000000000000002 10.180694722778892  7.972394755003451 10.265197060788243  7.917184265010352 10.33867735470942  L 7.503105590062112 10.889779559118237  C 7.4478951000690135 10.963259853039412  7.38440303657695 11  7.312629399585921 11  C 7.240855762594895 11  7.1773636991028305 10.963259853039412  7.122153209109731 10.889779559118237  L 3.2629399585921326 5.753507014028056  C 3.2077294685990343 5.68002672010688  3.180124223602485 5.595524382097528  3.1801242236024843 5.5  C 3.180124223602485 5.404475617902471  3.2077294685990343 5.319973279893119  3.2629399585921326 5.246492985971944  L 7.122153209109731 0.11022044088176364  C 7.1773636991028305 0.03674014696058747  7.240855762594895 0  7.312629399585921 0  C 7.38440303657695 0  7.4478951000690135 0.03674014696058747  7.503105590062112 0.11022044088176364  L 7.917184265010352 0.6613226452905806  C 7.972394755003451 0.7348029392117555  8.000000000000002 0.8193052772211075  8 0.9148296593186376  C 8.000000000000002 1.0103540414161651  7.972394755003451 1.0948563794255173  7.917184265010352 1.1683366733466933  L 4.662525879917184 5.5  L 7.917184265010352 9.831663326653306  Z " stroke-width="0" stroke-dasharray="0" stroke="rgba(255, 255, 255, 1)" fill="none" transform="matrix(1 0 0 1 1101 183 )" class="stroke" mask="url(#Clip7)" />
  </g>
</svg>