<?xml version="1.0" encoding="utf-8"?>
<svg version="1.1" xmlns:xlink="http://www.w3.org/1999/xlink" width="11px" height="8px" xmlns="http://www.w3.org/2000/svg">
  <defs>
    <pattern id="BGPattern" patternUnits="userSpaceOnUse" alignment="0 0" imageRepeat="None" />
    <mask fill="white" id="Clip8">
      <path d="M 10.889779559118237 3.6770186335403725  C 10.963259853039412 3.732229123533471  11 3.795721187025534  11 3.867494824016563  C 11 3.9392684610075914  10.963259853039412 4.002760524499655  10.889779559118237 4.057971014492754  L 5.753507014028056 7.917184265010352  C 5.680026720106881 7.97239475500345  5.595524382097529 8  5.5 8  C 5.404475617902472 8  5.31997327989312 7.97239475500345  5.246492985971944 7.917184265010352  L 0.11022044088176353 4.057971014492754  C 0.03674014696058795 4.002760524499655  0 3.9392684610075914  0 3.867494824016563  C 0 3.795721187025534  0.03674014696058795 3.732229123533471  0.11022044088176353 3.6770186335403725  L 0.6613226452905812 3.262939958592132  C 0.7348029392117571 3.207729468599033  0.819305277221109 3.1801242236024843  0.9148296593186372 3.1801242236024843  C 1.0103540414161658 3.1801242236024843  1.0948563794255177 3.207729468599033  1.1683366733466933 3.262939958592132  L 5.5 6.5175983436853  L 9.831663326653306 3.262939958592132  C 9.905143620574483 3.207729468599033  9.989645958583834 3.1801242236024843  10.085170340681362 3.1801242236024843  C 10.180694722778892 3.1801242236024843  10.265197060788244 3.207729468599033  10.33867735470942 3.262939958592132  L 10.889779559118237 3.6770186335403725  Z M 10.889779559118237 0.49689440993788825  C 10.963259853039412 0.5521048999309857  11 0.6155969634230498  11 0.6873706004140789  C 11 0.7591442374051054  10.963259853039412 0.8226363008971695  10.889779559118237 0.8778467908902687  L 5.753507014028056 4.737060041407867  C 5.680026720106881 4.792270531400966  5.595524382097529 4.819875776397516  5.5 4.819875776397516  C 5.404475617902472 4.819875776397516  5.31997327989312 4.792270531400966  5.246492985971944 4.737060041407867  L 0.11022044088176353 0.8778467908902687  C 0.03674014696058795 0.8226363008971695  0 0.7591442374051054  0 0.6873706004140789  C 0 0.6155969634230498  0.03674014696058795 0.5521048999309857  0.11022044088176353 0.49689440993788825  L 0.6613226452905812 0.0828157349896479  C 0.7348029392117571 0.027605244996548706  0.819305277221109 0  0.9148296593186372 0  C 1.0103540414161658 0  1.0948563794255177 0.027605244996548706  1.1683366733466933 0.0828157349896479  L 5.5 3.337474120082816  L 9.831663326653306 0.0828157349896479  C 9.905143620574483 0.027605244996548706  9.989645958583834 0  10.085170340681362 0  C 10.180694722778892 0  10.265197060788244 0.027605244996548706  10.33867735470942 0.0828157349896479  L 10.889779559118237 0.49689440993788825  Z " fill-rule="evenodd" />
    </mask>
  </defs>
  <g transform="matrix(1 0 0 1 -990 -164 )">
    <path d="M 10.889779559118237 3.6770186335403725  C 10.963259853039412 3.732229123533471  11 3.795721187025534  11 3.867494824016563  C 11 3.9392684610075914  10.963259853039412 4.002760524499655  10.889779559118237 4.057971014492754  L 5.753507014028056 7.917184265010352  C 5.680026720106881 7.97239475500345  5.595524382097529 8  5.5 8  C 5.404475617902472 8  5.31997327989312 7.97239475500345  5.246492985971944 7.917184265010352  L 0.11022044088176353 4.057971014492754  C 0.03674014696058795 4.002760524499655  0 3.9392684610075914  0 3.867494824016563  C 0 3.795721187025534  0.03674014696058795 3.732229123533471  0.11022044088176353 3.6770186335403725  L 0.6613226452905812 3.262939958592132  C 0.7348029392117571 3.207729468599033  0.819305277221109 3.1801242236024843  0.9148296593186372 3.1801242236024843  C 1.0103540414161658 3.1801242236024843  1.0948563794255177 3.207729468599033  1.1683366733466933 3.262939958592132  L 5.5 6.5175983436853  L 9.831663326653306 3.262939958592132  C 9.905143620574483 3.207729468599033  9.989645958583834 3.1801242236024843  10.085170340681362 3.1801242236024843  C 10.180694722778892 3.1801242236024843  10.265197060788244 3.207729468599033  10.33867735470942 3.262939958592132  L 10.889779559118237 3.6770186335403725  Z M 10.889779559118237 0.49689440993788825  C 10.963259853039412 0.5521048999309857  11 0.6155969634230498  11 0.6873706004140789  C 11 0.7591442374051054  10.963259853039412 0.8226363008971695  10.889779559118237 0.8778467908902687  L 5.753507014028056 4.737060041407867  C 5.680026720106881 4.792270531400966  5.595524382097529 4.819875776397516  5.5 4.819875776397516  C 5.404475617902472 4.819875776397516  5.31997327989312 4.792270531400966  5.246492985971944 4.737060041407867  L 0.11022044088176353 0.8778467908902687  C 0.03674014696058795 0.8226363008971695  0 0.7591442374051054  0 0.6873706004140789  C 0 0.6155969634230498  0.03674014696058795 0.5521048999309857  0.11022044088176353 0.49689440993788825  L 0.6613226452905812 0.0828157349896479  C 0.7348029392117571 0.027605244996548706  0.819305277221109 0  0.9148296593186372 0  C 1.0103540414161658 0  1.0948563794255177 0.027605244996548706  1.1683366733466933 0.0828157349896479  L 5.5 3.337474120082816  L 9.831663326653306 0.0828157349896479  C 9.905143620574483 0.027605244996548706  9.989645958583834 0  10.085170340681362 0  C 10.180694722778892 0  10.265197060788244 0.027605244996548706  10.33867735470942 0.0828157349896479  L 10.889779559118237 0.49689440993788825  Z " fill-rule="nonzero" fill="rgba(204, 204, 204, 1)" stroke="none" transform="matrix(1 0 0 1 990 164 )" class="fill" />
    <path d="M 10.889779559118237 3.6770186335403725  C 10.963259853039412 3.732229123533471  11 3.795721187025534  11 3.867494824016563  C 11 3.9392684610075914  10.963259853039412 4.002760524499655  10.889779559118237 4.057971014492754  L 5.753507014028056 7.917184265010352  C 5.680026720106881 7.97239475500345  5.595524382097529 8  5.5 8  C 5.404475617902472 8  5.31997327989312 7.97239475500345  5.246492985971944 7.917184265010352  L 0.11022044088176353 4.057971014492754  C 0.03674014696058795 4.002760524499655  0 3.9392684610075914  0 3.867494824016563  C 0 3.795721187025534  0.03674014696058795 3.732229123533471  0.11022044088176353 3.6770186335403725  L 0.6613226452905812 3.262939958592132  C 0.7348029392117571 3.207729468599033  0.819305277221109 3.1801242236024843  0.9148296593186372 3.1801242236024843  C 1.0103540414161658 3.1801242236024843  1.0948563794255177 3.207729468599033  1.1683366733466933 3.262939958592132  L 5.5 6.5175983436853  L 9.831663326653306 3.262939958592132  C 9.905143620574483 3.207729468599033  9.989645958583834 3.1801242236024843  10.085170340681362 3.1801242236024843  C 10.180694722778892 3.1801242236024843  10.265197060788244 3.207729468599033  10.33867735470942 3.262939958592132  L 10.889779559118237 3.6770186335403725  Z " stroke-width="0" stroke-dasharray="0" stroke="rgba(121, 121, 121, 1)" fill="none" transform="matrix(1 0 0 1 990 164 )" class="stroke" mask="url(#Clip8)" />
    <path d="M 10.889779559118237 0.49689440993788825  C 10.963259853039412 0.5521048999309857  11 0.6155969634230498  11 0.6873706004140789  C 11 0.7591442374051054  10.963259853039412 0.8226363008971695  10.889779559118237 0.8778467908902687  L 5.753507014028056 4.737060041407867  C 5.680026720106881 4.792270531400966  5.595524382097529 4.819875776397516  5.5 4.819875776397516  C 5.404475617902472 4.819875776397516  5.31997327989312 4.792270531400966  5.246492985971944 4.737060041407867  L 0.11022044088176353 0.8778467908902687  C 0.03674014696058795 0.8226363008971695  0 0.7591442374051054  0 0.6873706004140789  C 0 0.6155969634230498  0.03674014696058795 0.5521048999309857  0.11022044088176353 0.49689440993788825  L 0.6613226452905812 0.0828157349896479  C 0.7348029392117571 0.027605244996548706  0.819305277221109 0  0.9148296593186372 0  C 1.0103540414161658 0  1.0948563794255177 0.027605244996548706  1.1683366733466933 0.0828157349896479  L 5.5 3.337474120082816  L 9.831663326653306 0.0828157349896479  C 9.905143620574483 0.027605244996548706  9.989645958583834 0  10.085170340681362 0  C 10.180694722778892 0  10.265197060788244 0.027605244996548706  10.33867735470942 0.0828157349896479  L 10.889779559118237 0.49689440993788825  Z " stroke-width="0" stroke-dasharray="0" stroke="rgba(121, 121, 121, 1)" fill="none" transform="matrix(1 0 0 1 990 164 )" class="stroke" mask="url(#Clip8)" />
  </g>
</svg>