<?xml version="1.0" encoding="utf-8"?>
<svg version="1.1" xmlns:xlink="http://www.w3.org/1999/xlink" width="23px" height="18px" xmlns="http://www.w3.org/2000/svg">
  <defs>
    <pattern id="BGPattern" patternUnits="userSpaceOnUse" alignment="0 0" imageRepeat="None" />
    <mask fill="white" id="Clip1">
      <path d="M 22.756138392857142 14.970170454545455  C 22.918712797619047 15.132102272727273  23 15.323863636363637  23 15.545454545454545  L 23 17.181818181818183  C 23 17.40340909090909  22.918712797619047 17.595170454545453  22.756138392857142 17.757102272727273  C 22.59356398809524 17.91903409090909  22.401041666666668 18  22.17857142857143 18  L 0.8214285714285714 18  C 0.5989583333333334 18  0.4064360119047619 17.91903409090909  0.24386160714285715 17.757102272727273  C 0.08128720238095238 17.595170454545453  0 17.40340909090909  0 17.181818181818183  L 0 15.545454545454545  C 0 15.323863636363637  0.08128720238095238 15.132102272727273  0.24386160714285715 14.970170454545455  C 0.4064360119047619 14.808238636363635  0.5989583333333334 14.727272727272727  0.8214285714285714 14.727272727272727  L 22.17857142857143 14.727272727272727  C 22.401041666666668 14.727272727272727  22.59356398809524 14.808238636363635  22.756138392857142 14.970170454545455  Z M 22.756138392857142 10.061079545454545  C 22.918712797619047 10.223011363636363  23 10.414772727272727  23 10.636363636363635  L 23 12.272727272727273  C 23 12.494318181818182  22.918712797619047 12.686079545454547  22.756138392857142 12.848011363636365  C 22.59356398809524 13.009943181818182  22.401041666666668 13.090909090909092  22.17857142857143 13  L 0.8214285714285714 13  C 0.5989583333333334 13.090909090909092  0.4064360119047619 13.009943181818182  0.24386160714285715 12.848011363636365  C 0.08128720238095238 12.686079545454547  0 12.494318181818182  0 12.272727272727273  L 0 10.636363636363635  C 0 10.414772727272727  0.08128720238095238 10.223011363636363  0.24386160714285715 10.061079545454545  C 0.4064360119047619 9.899147727272725  0.5989583333333334 9.818181818181817  0.8214285714285714 9.818181818181817  L 22.17857142857143 9.818181818181817  C 22.401041666666668 9.818181818181817  22.59356398809524 9.899147727272725  22.756138392857142 10.061079545454545  Z M 22.756138392857142 5.151988636363637  C 22.918712797619047 5.313920454545453  23 5.505681818181817  23 5.727272727272728  L 23 7.363636363636363  C 23 7.5852272727272725  22.918712797619047 7.776988636363636  22.756138392857142 7.938920454545454  C 22.59356398809524 8.100852272727273  22.401041666666668 8.181818181818183  22.17857142857143 8.181818181818183  L 0.8214285714285714 8.181818181818183  C 0.5989583333333334 8.181818181818183  0.4064360119047619 8.100852272727273  0.24386160714285715 7.938920454545454  C 0.08128720238095238 7.776988636363636  0 7.5852272727272725  0 7.363636363636363  L 0 5.727272727272728  C 0 5.505681818181817  0.08128720238095238 5.313920454545453  0.24386160714285715 5.151988636363637  C 0.4064360119047619 4.990056818181818  0.5989583333333334 4.909090909090908  0.8214285714285714 5  L 22.17857142857143 5  C 22.401041666666668 4.909090909090908  22.59356398809524 4.990056818181818  22.756138392857142 5.151988636363637  Z M 22.756138392857142 0.24289772727272818  C 22.918712797619047 0.40482954545454297  23 0.5965909090909081  23 0.8181818181818175  L 23 2.454545454545454  C 23 2.6761363636363615  22.918712797619047 2.8678977272727266  22.756138392857142 3.029829545454546  C 22.59356398809524 3.1917613636363624  22.401041666666668 3.2727272727272716  22.17857142857143 3.2727272727272716  L 0.8214285714285714 3.2727272727272716  C 0.5989583333333334 3.2727272727272716  0.4064360119047619 3.1917613636363624  0.24386160714285715 3.029829545454546  C 0.08128720238095238 2.8678977272727266  0 2.6761363636363615  0 2.454545454545454  L 0 0.8181818181818175  C 0 0.5965909090909081  0.08128720238095238 0.40482954545454297  0.24386160714285715 0.24289772727272818  C 0.4064360119047619 0.0809659090909074  0.5989583333333334 0  0.8214285714285714 0  L 22.17857142857143 0  C 22.401041666666668 0  22.59356398809524 0.0809659090909074  22.756138392857142 0.24289772727272818  Z " fill-rule="evenodd" />
    </mask>
  </defs>
  <g transform="matrix(1 0 0 1 -44 -36 )">
    <path d="M 22.756138392857142 14.970170454545455  C 22.918712797619047 15.132102272727273  23 15.323863636363637  23 15.545454545454545  L 23 17.181818181818183  C 23 17.40340909090909  22.918712797619047 17.595170454545453  22.756138392857142 17.757102272727273  C 22.59356398809524 17.91903409090909  22.401041666666668 18  22.17857142857143 18  L 0.8214285714285714 18  C 0.5989583333333334 18  0.4064360119047619 17.91903409090909  0.24386160714285715 17.757102272727273  C 0.08128720238095238 17.595170454545453  0 17.40340909090909  0 17.181818181818183  L 0 15.545454545454545  C 0 15.323863636363637  0.08128720238095238 15.132102272727273  0.24386160714285715 14.970170454545455  C 0.4064360119047619 14.808238636363635  0.5989583333333334 14.727272727272727  0.8214285714285714 14.727272727272727  L 22.17857142857143 14.727272727272727  C 22.401041666666668 14.727272727272727  22.59356398809524 14.808238636363635  22.756138392857142 14.970170454545455  Z M 22.756138392857142 10.061079545454545  C 22.918712797619047 10.223011363636363  23 10.414772727272727  23 10.636363636363635  L 23 12.272727272727273  C 23 12.494318181818182  22.918712797619047 12.686079545454547  22.756138392857142 12.848011363636365  C 22.59356398809524 13.009943181818182  22.401041666666668 13.090909090909092  22.17857142857143 13  L 0.8214285714285714 13  C 0.5989583333333334 13.090909090909092  0.4064360119047619 13.009943181818182  0.24386160714285715 12.848011363636365  C 0.08128720238095238 12.686079545454547  0 12.494318181818182  0 12.272727272727273  L 0 10.636363636363635  C 0 10.414772727272727  0.08128720238095238 10.223011363636363  0.24386160714285715 10.061079545454545  C 0.4064360119047619 9.899147727272725  0.5989583333333334 9.818181818181817  0.8214285714285714 9.818181818181817  L 22.17857142857143 9.818181818181817  C 22.401041666666668 9.818181818181817  22.59356398809524 9.899147727272725  22.756138392857142 10.061079545454545  Z M 22.756138392857142 5.151988636363637  C 22.918712797619047 5.313920454545453  23 5.505681818181817  23 5.727272727272728  L 23 7.363636363636363  C 23 7.5852272727272725  22.918712797619047 7.776988636363636  22.756138392857142 7.938920454545454  C 22.59356398809524 8.100852272727273  22.401041666666668 8.181818181818183  22.17857142857143 8.181818181818183  L 0.8214285714285714 8.181818181818183  C 0.5989583333333334 8.181818181818183  0.4064360119047619 8.100852272727273  0.24386160714285715 7.938920454545454  C 0.08128720238095238 7.776988636363636  0 7.5852272727272725  0 7.363636363636363  L 0 5.727272727272728  C 0 5.505681818181817  0.08128720238095238 5.313920454545453  0.24386160714285715 5.151988636363637  C 0.4064360119047619 4.990056818181818  0.5989583333333334 4.909090909090908  0.8214285714285714 5  L 22.17857142857143 5  C 22.401041666666668 4.909090909090908  22.59356398809524 4.990056818181818  22.756138392857142 5.151988636363637  Z M 22.756138392857142 0.24289772727272818  C 22.918712797619047 0.40482954545454297  23 0.5965909090909081  23 0.8181818181818175  L 23 2.454545454545454  C 23 2.6761363636363615  22.918712797619047 2.8678977272727266  22.756138392857142 3.029829545454546  C 22.59356398809524 3.1917613636363624  22.401041666666668 3.2727272727272716  22.17857142857143 3.2727272727272716  L 0.8214285714285714 3.2727272727272716  C 0.5989583333333334 3.2727272727272716  0.4064360119047619 3.1917613636363624  0.24386160714285715 3.029829545454546  C 0.08128720238095238 2.8678977272727266  0 2.6761363636363615  0 2.454545454545454  L 0 0.8181818181818175  C 0 0.5965909090909081  0.08128720238095238 0.40482954545454297  0.24386160714285715 0.24289772727272818  C 0.4064360119047619 0.0809659090909074  0.5989583333333334 0  0.8214285714285714 0  L 22.17857142857143 0  C 22.401041666666668 0  22.59356398809524 0.0809659090909074  22.756138392857142 0.24289772727272818  Z " fill-rule="nonzero" fill="rgba(7, 182, 239, 1)" stroke="none" transform="matrix(1 0 0 1 44 36 )" class="fill" />
    <path d="M 22.756138392857142 14.970170454545455  C 22.918712797619047 15.132102272727273  23 15.323863636363637  23 15.545454545454545  L 23 17.181818181818183  C 23 17.40340909090909  22.918712797619047 17.595170454545453  22.756138392857142 17.757102272727273  C 22.59356398809524 17.91903409090909  22.401041666666668 18  22.17857142857143 18  L 0.8214285714285714 18  C 0.5989583333333334 18  0.4064360119047619 17.91903409090909  0.24386160714285715 17.757102272727273  C 0.08128720238095238 17.595170454545453  0 17.40340909090909  0 17.181818181818183  L 0 15.545454545454545  C 0 15.323863636363637  0.08128720238095238 15.132102272727273  0.24386160714285715 14.970170454545455  C 0.4064360119047619 14.808238636363635  0.5989583333333334 14.727272727272727  0.8214285714285714 14.727272727272727  L 22.17857142857143 14.727272727272727  C 22.401041666666668 14.727272727272727  22.59356398809524 14.808238636363635  22.756138392857142 14.970170454545455  Z " stroke-width="0" stroke-dasharray="0" stroke="rgba(121, 121, 121, 1)" fill="none" transform="matrix(1 0 0 1 44 36 )" class="stroke" mask="url(#Clip1)" />
    <path d="M 22.756138392857142 10.061079545454545  C 22.918712797619047 10.223011363636363  23 10.414772727272727  23 10.636363636363635  L 23 12.272727272727273  C 23 12.494318181818182  22.918712797619047 12.686079545454547  22.756138392857142 12.848011363636365  C 22.59356398809524 13.009943181818182  22.401041666666668 13.090909090909092  22.17857142857143 13  L 0.8214285714285714 13  C 0.5989583333333334 13.090909090909092  0.4064360119047619 13.009943181818182  0.24386160714285715 12.848011363636365  C 0.08128720238095238 12.686079545454547  0 12.494318181818182  0 12.272727272727273  L 0 10.636363636363635  C 0 10.414772727272727  0.08128720238095238 10.223011363636363  0.24386160714285715 10.061079545454545  C 0.4064360119047619 9.899147727272725  0.5989583333333334 9.818181818181817  0.8214285714285714 9.818181818181817  L 22.17857142857143 9.818181818181817  C 22.401041666666668 9.818181818181817  22.59356398809524 9.899147727272725  22.756138392857142 10.061079545454545  Z " stroke-width="0" stroke-dasharray="0" stroke="rgba(121, 121, 121, 1)" fill="none" transform="matrix(1 0 0 1 44 36 )" class="stroke" mask="url(#Clip1)" />
    <path d="M 22.756138392857142 5.151988636363637  C 22.918712797619047 5.313920454545453  23 5.505681818181817  23 5.727272727272728  L 23 7.363636363636363  C 23 7.5852272727272725  22.918712797619047 7.776988636363636  22.756138392857142 7.938920454545454  C 22.59356398809524 8.100852272727273  22.401041666666668 8.181818181818183  22.17857142857143 8.181818181818183  L 0.8214285714285714 8.181818181818183  C 0.5989583333333334 8.181818181818183  0.4064360119047619 8.100852272727273  0.24386160714285715 7.938920454545454  C 0.08128720238095238 7.776988636363636  0 7.5852272727272725  0 7.363636363636363  L 0 5.727272727272728  C 0 5.505681818181817  0.08128720238095238 5.313920454545453  0.24386160714285715 5.151988636363637  C 0.4064360119047619 4.990056818181818  0.5989583333333334 4.909090909090908  0.8214285714285714 5  L 22.17857142857143 5  C 22.401041666666668 4.909090909090908  22.59356398809524 4.990056818181818  22.756138392857142 5.151988636363637  Z " stroke-width="0" stroke-dasharray="0" stroke="rgba(121, 121, 121, 1)" fill="none" transform="matrix(1 0 0 1 44 36 )" class="stroke" mask="url(#Clip1)" />
    <path d="M 22.756138392857142 0.24289772727272818  C 22.918712797619047 0.40482954545454297  23 0.5965909090909081  23 0.8181818181818175  L 23 2.454545454545454  C 23 2.6761363636363615  22.918712797619047 2.8678977272727266  22.756138392857142 3.029829545454546  C 22.59356398809524 3.1917613636363624  22.401041666666668 3.2727272727272716  22.17857142857143 3.2727272727272716  L 0.8214285714285714 3.2727272727272716  C 0.5989583333333334 3.2727272727272716  0.4064360119047619 3.1917613636363624  0.24386160714285715 3.029829545454546  C 0.08128720238095238 2.8678977272727266  0 2.6761363636363615  0 2.454545454545454  L 0 0.8181818181818175  C 0 0.5965909090909081  0.08128720238095238 0.40482954545454297  0.24386160714285715 0.24289772727272818  C 0.4064360119047619 0.0809659090909074  0.5989583333333334 0  0.8214285714285714 0  L 22.17857142857143 0  C 22.401041666666668 0  22.59356398809524 0.0809659090909074  22.756138392857142 0.24289772727272818  Z " stroke-width="0" stroke-dasharray="0" stroke="rgba(121, 121, 121, 1)" fill="none" transform="matrix(1 0 0 1 44 36 )" class="stroke" mask="url(#Clip1)" />
  </g>
</svg>