<svg t="1775094831331" class="icon" viewBox="0 0 1024 1024" version="1.1" xmlns="http://www.w3.org/2000/svg" p-id="3724" width="200" height="200"><path d="M352 224a32 32 0 0 1 32 32v288a32 32 0 0 0 32 32h487.04a32 32 0 0 1 31.04 39.776l-32 128a32 32 0 0 1-31.04 24.224h-40.192a112 112 0 0 1-221.696 0h-258.304a112 112 0 0 1-221.696 0H96a32 32 0 0 1-32-32v-267.776a128 128 0 0 1 18.976-67.072l99.648-161.92A32 32 0 0 1 209.92 224H352zM240 704a48 48 0 1 0 0 96 48 48 0 0 0 0-96z m480 0a48 48 0 1 0 0 96 48 48 0 0 0 0-96z m198.976-544c14.272 0 19.424 1.472 24.64 4.288 5.216 2.784 9.312 6.88 12.096 12.096 2.816 5.216 4.288 10.368 4.288 24.64v301.952c0 14.272-1.472 19.424-4.288 24.64a29.088 29.088 0 0 1-12.096 12.096c-5.216 2.816-10.368 4.288-24.64 4.288H457.024c-14.272 0-19.424-1.472-24.64-4.288a29.088 29.088 0 0 1-12.096-12.096c-2.816-5.216-4.288-10.368-4.288-24.64V201.024c0-14.272 1.472-19.424 4.288-24.64a29.088 29.088 0 0 1 12.096-12.096c5.216-2.816 10.368-4.288 24.64-4.288h461.952zM299.52 288H236.704a26.24 26.24 0 0 0-8.768 0.896 14.176 14.176 0 0 0-5.184 2.944 26.24 26.24 0 0 0-5.28 7.04l-75.456 125.76a129.536 129.536 0 0 0-9.376 17.44 54.4 54.4 0 0 0-3.712 13.376 107.456 107.456 0 0 0-0.928 15.68v20.352c0 7.136 0.736 9.728 2.144 12.32a14.528 14.528 0 0 0 6.048 6.08c2.592 1.376 5.184 2.112 12.32 2.112h150.976c7.136 0 9.728-0.736 12.32-2.144a14.528 14.528 0 0 0 6.08-6.048c1.376-2.592 2.112-5.184 2.112-12.32V308.512c0-7.136-0.736-9.728-2.144-12.32a14.528 14.528 0 0 0-6.048-6.08C309.216 288.768 306.624 288 299.52 288z" fill="#000000" p-id="3725"></path></svg>