<?xml version="1.0" encoding="utf-8"?>
<svg version="1.1" xmlns:xlink="http://www.w3.org/1999/xlink" width="22px" height="26px" xmlns="http://www.w3.org/2000/svg">
  <defs>
    <pattern id="BGPattern" patternUnits="userSpaceOnUse" alignment="0 0" imageRepeat="None" />
    <mask fill="white" id="Clip14">
      <path d="M 12 5.6  C 12 9.6  8.399999999999999 12  6 16  C 3.5999999999999996 12  0 9.6  0 5.6  C 0 3.5199999999999996  1.2000000000000002 0  6 0  C 10.8 0  12 3.5199999999999996  12 5.6  Z " fill-rule="evenodd" />
    </mask>
  </defs>
  <g transform="matrix(1 0 0 1 -702 -424 )">
    <path d="M 12 5.6  C 12 9.6  8.399999999999999 12  6 16  C 3.5999999999999996 12  0 9.6  0 5.6  C 0 3.5199999999999996  1.2000000000000002 0  6 0  C 10.8 0  12 3.5199999999999996  12 5.6  Z " fill-rule="nonzero" fill="rgba(51, 204, 0, 1)" stroke="none" transform="matrix(1 0 0 1 706 428 )" class="fill" />
    <path d="M 12 5.6  C 12 9.6  8.399999999999999 12  6 16  C 3.5999999999999996 12  0 9.6  0 5.6  C 0 3.5199999999999996  1.2000000000000002 0  6 0  C 10.8 0  12 3.5199999999999996  12 5.6  Z " stroke-width="2" stroke-dasharray="0" stroke="rgba(255, 255, 255, 1)" fill="none" transform="matrix(1 0 0 1 706 428 )" class="stroke" mask="url(#Clip14)" />
  </g>
  <style>svg { filter: drop-shadow(1px 1px 2.5px rgba(0, 0, 0, 0.6980392156862745)); }</style>
</svg>