<?xml version="1.0" encoding="utf-8"?>
<svg version="1.1" xmlns:xlink="http://www.w3.org/1999/xlink" width="42px" height="79px" xmlns="http://www.w3.org/2000/svg">
  <defs>
    <pattern id="BGPattern" patternUnits="userSpaceOnUse" alignment="0 0" imageRepeat="None" />
    <mask fill="white" id="Clip15">
      <path d="M 5.1521739130435 8  L 0.15217391304349556 7.437659033078869  L 2.586956521739113 1.2061068702290076  L 23.100000000000012 0.6030534351145038  C 23.100000000000012 0.6030534351145038  30.816505969499282 0.37376538096043616  35.304347826086975 3.0152671755725193  C 37.406762120177234 4.252728589839043  38.82168510016568 6.140052927224154  39.89999999999999 7.703822989908179  C 40.954524309811745 9.233091987591118  41.021739130434796 16.196292257360945  41.021739130434796 16.196292257360945  L 41.90869565217389 78.3969465648855  L 33.19565217391302 79  L 33.84782608695651 17.689567430025434  C 33.84782608695651 17.689567430025434  34.26790292073058 12.637843849894496  32.543478260869584 10.510359869138505  C 29.569525720541794 6.841288939947521  21.6391304347826 8  21.6391304347826 8  L 5.1521739130435 8  Z " fill-rule="evenodd" />
    </mask>
  </defs>
  <g transform="matrix(1 0 0 1 -679 -207 )">
    <path d="M 5.1521739130435 8  L 0.15217391304349556 7.437659033078869  L 2.586956521739113 1.2061068702290076  L 23.100000000000012 0.6030534351145038  C 23.100000000000012 0.6030534351145038  30.816505969499282 0.37376538096043616  35.304347826086975 3.0152671755725193  C 37.406762120177234 4.252728589839043  38.82168510016568 6.140052927224154  39.89999999999999 7.703822989908179  C 40.954524309811745 9.233091987591118  41.021739130434796 16.196292257360945  41.021739130434796 16.196292257360945  L 41.90869565217389 78.3969465648855  L 33.19565217391302 79  L 33.84782608695651 17.689567430025434  C 33.84782608695651 17.689567430025434  34.26790292073058 12.637843849894496  32.543478260869584 10.510359869138505  C 29.569525720541794 6.841288939947521  21.6391304347826 8  21.6391304347826 8  L 5.1521739130435 8  Z " fill-rule="nonzero" fill="rgba(25, 186, 153, 1)" stroke="none" transform="matrix(1 0 0 1 679 207 )" class="fill" />
    <path d="M 5.1521739130435 8  L 0.15217391304349556 7.437659033078869  L 2.586956521739113 1.2061068702290076  L 23.100000000000012 0.6030534351145038  C 23.100000000000012 0.6030534351145038  30.816505969499282 0.37376538096043616  35.304347826086975 3.0152671755725193  C 37.406762120177234 4.252728589839043  38.82168510016568 6.140052927224154  39.89999999999999 7.703822989908179  C 40.954524309811745 9.233091987591118  41.021739130434796 16.196292257360945  41.021739130434796 16.196292257360945  L 41.90869565217389 78.3969465648855  L 33.19565217391302 79  L 33.84782608695651 17.689567430025434  C 33.84782608695651 17.689567430025434  34.26790292073058 12.637843849894496  32.543478260869584 10.510359869138505  C 29.569525720541794 6.841288939947521  21.6391304347826 8  21.6391304347826 8  L 5.1521739130435 8  Z " stroke-width="0" stroke-dasharray="0" stroke="rgba(121, 121, 121, 1)" fill="none" transform="matrix(1 0 0 1 679 207 )" class="stroke" mask="url(#Clip15)" />
  </g>
</svg>