<?xml version="1.0" encoding="utf-8"?>
<svg version="1.1" xmlns:xlink="http://www.w3.org/1999/xlink" width="6px" height="5px" xmlns="http://www.w3.org/2000/svg">
  <defs>
    <pattern id="BGPattern" patternUnits="userSpaceOnUse" alignment="0 0" imageRepeat="None" />
    <mask fill="white" id="Clip16">
      <path d="M 5.939879759519038 4.451345755693582  C 5.979959919839679 4.485852311939269  6 4.525534851621808  6 4.570393374741201  C 6 4.615251897860594  5.979959919839679 4.654934437543133  5.939879759519038 4.6894409937888195  L 5.6392785571142285 4.94824016563147  C 5.599198396793588 4.982746721877157  5.553106212424851 5  5.501002004008016 5  C 5.448897795591183 5  5.402805611222445 4.982746721877157  5.362725450901804 4.94824016563147  L 3 2.9140786749482404  L 0.6372745490981964 4.94824016563147  C 0.5971943887775552 4.982746721877157  0.5511022044088177 5  0.49899799599198397 5  C 0.44689378757515036 5  0.40080160320641295 4.982746721877157  0.3607214428857715 4.94824016563147  L 0.06012024048096192 4.6894409937888195  C 0.0200400801603207 4.654934437543133  0 4.615251897860594  0 4.570393374741201  C 0 4.525534851621808  0.0200400801603207 4.485852311939269  0.06012024048096192 4.451345755693582  L 2.8617234468937873 2.0393374741200825  C 2.901803607214429 2.0048309178743957  2.947895791583167 1.9875776397515525  3 1.9875776397515525  C 3.052104208416834 1.9875776397515525  3.0981963927855714 2.0048309178743957  3.1382765531062122 2.0393374741200825  L 5.939879759519038 4.451345755693582  Z M 5.939879759519038 2.463768115942029  C 5.979959919839679 2.498274672187715  6 2.537957211870255  6 2.582815734989648  C 6 2.6276742581090407  5.979959919839679 2.66735679779158  5.939879759519038 2.7018633540372674  L 5.6392785571142285 2.9606625258799166  C 5.599198396793588 2.995169082125604  5.553106212424851 3.0124223602484475  5.501002004008016 3.0124223602484475  C 5.448897795591183 3.0124223602484475  5.402805611222445 2.995169082125604  5.362725450901804 2.9606625258799166  L 3 0.9265010351966874  L 0.6372745490981964 2.9606625258799166  C 0.5971943887775552 2.995169082125604  0.5511022044088177 3.0124223602484475  0.49899799599198397 3.0124223602484475  C 0.44689378757515036 3.0124223602484475  0.40080160320641295 2.995169082125604  0.3607214428857715 2.9606625258799166  L 0.06012024048096192 2.7018633540372674  C 0.0200400801603207 2.66735679779158  0 2.6276742581090407  0 2.582815734989648  C 0 2.537957211870255  0.0200400801603207 2.498274672187715  0.06012024048096192 2.463768115942029  L 2.8617234468937873 0.05175983436852993  C 2.901803607214429 0.01725327812284294  2.947895791583167 0  3 0  C 3.052104208416834 0  3.0981963927855714 0.01725327812284294  3.1382765531062122 0.05175983436852993  L 5.939879759519038 2.463768115942029  Z " fill-rule="evenodd" />
    </mask>
  </defs>
  <g transform="matrix(1 0 0 1 -712 -262 )">
    <path d="M 5.939879759519038 4.451345755693582  C 5.979959919839679 4.485852311939269  6 4.525534851621808  6 4.570393374741201  C 6 4.615251897860594  5.979959919839679 4.654934437543133  5.939879759519038 4.6894409937888195  L 5.6392785571142285 4.94824016563147  C 5.599198396793588 4.982746721877157  5.553106212424851 5  5.501002004008016 5  C 5.448897795591183 5  5.402805611222445 4.982746721877157  5.362725450901804 4.94824016563147  L 3 2.9140786749482404  L 0.6372745490981964 4.94824016563147  C 0.5971943887775552 4.982746721877157  0.5511022044088177 5  0.49899799599198397 5  C 0.44689378757515036 5  0.40080160320641295 4.982746721877157  0.3607214428857715 4.94824016563147  L 0.06012024048096192 4.6894409937888195  C 0.0200400801603207 4.654934437543133  0 4.615251897860594  0 4.570393374741201  C 0 4.525534851621808  0.0200400801603207 4.485852311939269  0.06012024048096192 4.451345755693582  L 2.8617234468937873 2.0393374741200825  C 2.901803607214429 2.0048309178743957  2.947895791583167 1.9875776397515525  3 1.9875776397515525  C 3.052104208416834 1.9875776397515525  3.0981963927855714 2.0048309178743957  3.1382765531062122 2.0393374741200825  L 5.939879759519038 4.451345755693582  Z M 5.939879759519038 2.463768115942029  C 5.979959919839679 2.498274672187715  6 2.537957211870255  6 2.582815734989648  C 6 2.6276742581090407  5.979959919839679 2.66735679779158  5.939879759519038 2.7018633540372674  L 5.6392785571142285 2.9606625258799166  C 5.599198396793588 2.995169082125604  5.553106212424851 3.0124223602484475  5.501002004008016 3.0124223602484475  C 5.448897795591183 3.0124223602484475  5.402805611222445 2.995169082125604  5.362725450901804 2.9606625258799166  L 3 0.9265010351966874  L 0.6372745490981964 2.9606625258799166  C 0.5971943887775552 2.995169082125604  0.5511022044088177 3.0124223602484475  0.49899799599198397 3.0124223602484475  C 0.44689378757515036 3.0124223602484475  0.40080160320641295 2.995169082125604  0.3607214428857715 2.9606625258799166  L 0.06012024048096192 2.7018633540372674  C 0.0200400801603207 2.66735679779158  0 2.6276742581090407  0 2.582815734989648  C 0 2.537957211870255  0.0200400801603207 2.498274672187715  0.06012024048096192 2.463768115942029  L 2.8617234468937873 0.05175983436852993  C 2.901803607214429 0.01725327812284294  2.947895791583167 0  3 0  C 3.052104208416834 0  3.0981963927855714 0.01725327812284294  3.1382765531062122 0.05175983436852993  L 5.939879759519038 2.463768115942029  Z " fill-rule="nonzero" fill="rgba(215, 215, 215, 1)" stroke="none" transform="matrix(1 0 0 1 712 262 )" class="fill" />
    <path d="M 5.939879759519038 4.451345755693582  C 5.979959919839679 4.485852311939269  6 4.525534851621808  6 4.570393374741201  C 6 4.615251897860594  5.979959919839679 4.654934437543133  5.939879759519038 4.6894409937888195  L 5.6392785571142285 4.94824016563147  C 5.599198396793588 4.982746721877157  5.553106212424851 5  5.501002004008016 5  C 5.448897795591183 5  5.402805611222445 4.982746721877157  5.362725450901804 4.94824016563147  L 3 2.9140786749482404  L 0.6372745490981964 4.94824016563147  C 0.5971943887775552 4.982746721877157  0.5511022044088177 5  0.49899799599198397 5  C 0.44689378757515036 5  0.40080160320641295 4.982746721877157  0.3607214428857715 4.94824016563147  L 0.06012024048096192 4.6894409937888195  C 0.0200400801603207 4.654934437543133  0 4.615251897860594  0 4.570393374741201  C 0 4.525534851621808  0.0200400801603207 4.485852311939269  0.06012024048096192 4.451345755693582  L 2.8617234468937873 2.0393374741200825  C 2.901803607214429 2.0048309178743957  2.947895791583167 1.9875776397515525  3 1.9875776397515525  C 3.052104208416834 1.9875776397515525  3.0981963927855714 2.0048309178743957  3.1382765531062122 2.0393374741200825  L 5.939879759519038 4.451345755693582  Z " stroke-width="0" stroke-dasharray="0" stroke="rgba(121, 121, 121, 1)" fill="none" transform="matrix(1 0 0 1 712 262 )" class="stroke" mask="url(#Clip16)" />
    <path d="M 5.939879759519038 2.463768115942029  C 5.979959919839679 2.498274672187715  6 2.537957211870255  6 2.582815734989648  C 6 2.6276742581090407  5.979959919839679 2.66735679779158  5.939879759519038 2.7018633540372674  L 5.6392785571142285 2.9606625258799166  C 5.599198396793588 2.995169082125604  5.553106212424851 3.0124223602484475  5.501002004008016 3.0124223602484475  C 5.448897795591183 3.0124223602484475  5.402805611222445 2.995169082125604  5.362725450901804 2.9606625258799166  L 3 0.9265010351966874  L 0.6372745490981964 2.9606625258799166  C 0.5971943887775552 2.995169082125604  0.5511022044088177 3.0124223602484475  0.49899799599198397 3.0124223602484475  C 0.44689378757515036 3.0124223602484475  0.40080160320641295 2.995169082125604  0.3607214428857715 2.9606625258799166  L 0.06012024048096192 2.7018633540372674  C 0.0200400801603207 2.66735679779158  0 2.6276742581090407  0 2.582815734989648  C 0 2.537957211870255  0.0200400801603207 2.498274672187715  0.06012024048096192 2.463768115942029  L 2.8617234468937873 0.05175983436852993  C 2.901803607214429 0.01725327812284294  2.947895791583167 0  3 0  C 3.052104208416834 0  3.0981963927855714 0.01725327812284294  3.1382765531062122 0.05175983436852993  L 5.939879759519038 2.463768115942029  Z " stroke-width="0" stroke-dasharray="0" stroke="rgba(121, 121, 121, 1)" fill="none" transform="matrix(1 0 0 1 712 262 )" class="stroke" mask="url(#Clip16)" />
  </g>
</svg>