<svg t="1775554366923" class="icon" viewBox="0 0 1024 1024" version="1.1" xmlns="http://www.w3.org/2000/svg" p-id="9709" width="200" height="200"><path d="M942 430C942 192.5 749.5 0 512 0S82 192.5 82 430c0 120.4 49.7 229.2 129.5 307.2 104 127.8 244.8 234.7 287.7 281.2 3.4 3.7 8.2 5.5 12.9 5.5 4.7 0.1 9.5-1.8 12.9-5.5 42.9-46.5 183.7-153.4 287.7-281.2C892.4 659.2 942 550.5 942 430z" fill="#0068FF" p-id="9710"></path><path d="M856 430c0 190-154 344-344 344S168 620 168 430 322 86 512 86s344 154 344 344z" fill="#FFFFFF" p-id="9711"></path><path d="M367 189.4h167.2c112.8 0 199.5 39.2 199.5 159.6 0 116.3-87.4 168.6-196.8 168.6h-68.1v180.9H367V189.4z m163.1 247.7c70.2 0 103.9-29.6 103.9-88.1 0-59.2-37.2-79.1-107.3-79.1h-57.8v167.2h61.2z" fill="#0068FF" p-id="9712"></path></svg>