<?xml version="1.0" encoding="utf-8"?>
<svg version="1.1" xmlns:xlink="http://www.w3.org/1999/xlink" width="435px" height="203px" xmlns="http://www.w3.org/2000/svg">
  <defs>
    <pattern id="BGPattern" patternUnits="userSpaceOnUse" alignment="0 0" imageRepeat="None" />
    <mask fill="white" id="Clip2">
      <path d="M 309.4776119402985 180.96707317073177  L 419.4179104477611 0.7426829268292964  L 434.134328358209 0  L 395.61194029850736 65.60365853658537  L 316.40298507462694 197.80121951219508  C 316.40298507462694 197.80121951219508  312.95833333333337 201.1020325203251  309.4776119402985 202.75243902439018  C 306.03296019900495 202.75243902439018  295.62686567164184 202.75243902439018  295.62686567164184 202.75243902439018  L 38.95522388059701 83  L 23.80597014925373 83  L 0 118.41666666666663  L 0 90.70331538844802  L 23.80597014925373 63.1280487804878  L 38.95522388059701 61.47764227642279  L 295.62686567164184 183.44268292682932  C 295.62686567164184 183.44268292682932  300.1724143436446 186.4278464340771  304.60820895522386 185.0518292682927  C 307.70364011341644 184.09160302200567  309.4776119402985 180.96707317073177  309.4776119402985 180.96707317073177  Z " fill-rule="evenodd" />
    </mask>
  </defs>
  <g transform="matrix(1 0 0 1 -987 -79 )">
    <path d="M 309.4776119402985 180.96707317073177  L 419.4179104477611 0.7426829268292964  L 434.134328358209 0  L 395.61194029850736 65.60365853658537  L 316.40298507462694 197.80121951219508  C 316.40298507462694 197.80121951219508  312.95833333333337 201.1020325203251  309.4776119402985 202.75243902439018  C 306.03296019900495 202.75243902439018  295.62686567164184 202.75243902439018  295.62686567164184 202.75243902439018  L 38.95522388059701 83  L 23.80597014925373 83  L 0 118.41666666666663  L 0 90.70331538844802  L 23.80597014925373 63.1280487804878  L 38.95522388059701 61.47764227642279  L 295.62686567164184 183.44268292682932  C 295.62686567164184 183.44268292682932  300.1724143436446 186.4278464340771  304.60820895522386 185.0518292682927  C 307.70364011341644 184.09160302200567  309.4776119402985 180.96707317073177  309.4776119402985 180.96707317073177  Z " fill-rule="nonzero" fill="rgba(28, 183, 152, 1)" stroke="none" transform="matrix(1 0 0 1 987 79 )" class="fill" />
    <path d="M 309.4776119402985 180.96707317073177  L 419.4179104477611 0.7426829268292964  L 434.134328358209 0  L 395.61194029850736 65.60365853658537  L 316.40298507462694 197.80121951219508  C 316.40298507462694 197.80121951219508  312.95833333333337 201.1020325203251  309.4776119402985 202.75243902439018  C 306.03296019900495 202.75243902439018  295.62686567164184 202.75243902439018  295.62686567164184 202.75243902439018  L 38.95522388059701 83  L 23.80597014925373 83  L 0 118.41666666666663  L 0 90.70331538844802  L 23.80597014925373 63.1280487804878  L 38.95522388059701 61.47764227642279  L 295.62686567164184 183.44268292682932  C 295.62686567164184 183.44268292682932  300.1724143436446 186.4278464340771  304.60820895522386 185.0518292682927  C 307.70364011341644 184.09160302200567  309.4776119402985 180.96707317073177  309.4776119402985 180.96707317073177  Z " stroke-width="2" stroke-dasharray="0" stroke="rgba(255, 255, 255, 1)" fill="none" transform="matrix(1 0 0 1 987 79 )" class="stroke" mask="url(#Clip2)" />
  </g>
</svg>