<svg t="1775555021951" class="icon" viewBox="0 0 1024 1024" version="1.1" xmlns="http://www.w3.org/2000/svg" p-id="10912" width="200" height="200"><path d="M512 102.4c226.2272 0 409.6 183.3728 409.6 409.6s-183.3728 409.6-409.6 409.6S102.4 738.2272 102.4 512 285.7728 102.4 512 102.4z m77.1072 153.6h-41.1648a375.552 375.552 0 0 1-45.1072 74.8032c-17.8944 23.1168-39.3472 45.2608-64.384 66.4832v-44.3136H385.28v-90.7264l-45.8752-2.0736v92.8H284.16v50.048h51.072c-4.864 15.2832-10.496 30.8224-16.9472 46.6432a1129.1648 1129.1648 0 0 1-20.0704 46.3872c-6.9376 15.1296-14.08 29.3888-21.3504 42.752A422.912 422.912 0 0 1 256 573.4656l39.6288 29.184c8.6784-14.2336 16.6656-28.928 23.9616-44.032 7.296-15.104 13.9008-30.1568 19.8144-45.0816v219.4688h45.8752v-229.376c8.704 11.1104 16.8704 22.7584 24.4992 34.9184l30.7712-29.184c1.536 4.6848 3.1744 9.7024 4.8128 15.0528l5.0944 16.9984 3.456 12.1088 6.9632 24.9088c3.4816 12.672 6.6816 25.0112 9.6512 37.0176 2.944 11.9808 5.2992 22.5024 7.04 31.5392l45.8752-18.2528a1005.824 1005.824 0 0 0-9.1392-33.6128l-3.712-12.8-7.7568-26.0608a1253.888 1253.888 0 0 0-19.3792-58.7264l-4.352-11.648-37.5296 12.0064a433.0496 433.0496 0 0 0-46.3872-55.2704l-9.9072 9.9072v-49.5104h45.8752c-3.84 3.1232-7.7312 6.2464-11.7248 9.3696-3.9936 3.1232-8.2432 6.2464-12.7744 9.3952l31.2832 42.24c10.752-8.704 20.48-16.896 29.184-24.5248v32.3328h203.3152v-34.4064c6.9632 6.2464 14.2592 12.416 21.888 18.4832 7.6544 6.0928 15.4624 12.0832 23.4752 17.9968l29.696-42.24a595.712 595.712 0 0 1-91.7504-80.7936A395.3152 395.3152 0 0 1 589.1072 256z m62.5664 228.352c-2.0736 6.7584-4.2496 13.7728-6.528 21.0176l-12.0064 38.016a1508.608 1508.608 0 0 1-10.6496 31.3856l-16.6912 47.1808c-5.5552 15.6416-11.1104 30.2336-16.6912 43.776h-174.6176v50.0736h307.0464v-50.048h-80.8192l14.848-40.1408a2629.632 2629.632 0 0 0 21.0432-59.136l9.728-28.9792c4.6848-14.2336 8.6016-27.1104 11.7248-38.5792z m-83.4048-4.1984l-43.776 13.056c1.6384 4.7872 3.4304 10.24 5.376 16.3328l3.9936 13.1072a2415.4624 2415.4624 0 0 1 20.3264 72.96l1.792 7.0656c1.1776 4.5824 2.2784 8.96 3.2768 13.1328l2.7392 11.8784 44.3136-15.104c-1.2544-5.632-2.688-11.7248-4.3008-18.304l-3.5072-13.7728a1169.6896 1169.6896 0 0 0-10.1632-36.48c-3.6608-12.3392-7.2192-24.1664-10.7008-35.456l-2.048-6.5536a686.0032 686.0032 0 0 0-3.84-11.8016l-3.4816-10.0608z m1.024-169.4208c19.8144 40.32 48.6656 78.0288 86.528 113.152h-172.032c36.1728-34.432 64.6656-72.1408 85.504-113.152z" fill="#1296db" p-id="10913"></path></svg>