<?xml version="1.0" encoding="utf-8"?>
<svg version="1.1" xmlns:xlink="http://www.w3.org/1999/xlink" width="28px" height="35px" xmlns="http://www.w3.org/2000/svg">
  <defs>
    <pattern id="BGPattern" patternUnits="userSpaceOnUse" alignment="0 0" imageRepeat="None" />
    <mask fill="white" id="Clip3">
      <path d="M 18 8.75  C 18 15  12.6 18.75  9 25  C 5.3999999999999995 18.75  0 15  0 8.75  C 0 5.499999999999999  1.8 0  9 0  C 16.2 0  18 5.499999999999999  18 8.75  Z " fill-rule="evenodd" />
    </mask>
  </defs>
  <g transform="matrix(1 0 0 1 -1358 -116 )">
    <path d="M 18 8.75  C 18 15  12.6 18.75  9 25  C 5.3999999999999995 18.75  0 15  0 8.75  C 0 5.499999999999999  1.8 0  9 0  C 16.2 0  18 5.499999999999999  18 8.75  Z " fill-rule="nonzero" fill="rgba(51, 204, 0, 1)" stroke="none" transform="matrix(1 0 0 1 1362 120 )" class="fill" />
    <path d="M 18 8.75  C 18 15  12.6 18.75  9 25  C 5.3999999999999995 18.75  0 15  0 8.75  C 0 5.499999999999999  1.8 0  9 0  C 16.2 0  18 5.499999999999999  18 8.75  Z " stroke-width="2" stroke-dasharray="0" stroke="rgba(255, 255, 255, 1)" fill="none" transform="matrix(1 0 0 1 1362 120 )" class="stroke" mask="url(#Clip3)" />
  </g>
  <style>svg { filter: drop-shadow(1px 1px 2.5px rgba(0, 0, 0, 0.6980392156862745)); }</style>
</svg>